<svg id="vert" xmlns="http://www.w3.org/2000/svg" viewBox="0 0 795.3 418.1"><style>.st0{fill:#fff}</style><g id="logo_mono"><g id="text_копия_3"><g id="viktor_Uksusoff_копия_3"><path id="v_3_" class="st0" d="M.8 311.8l14.9-4.7s13.9 41.2 14.1 40.9c.2-.3 14.9-40.9 14.9-40.9l14.3 4.8-21.7 59.3H22.2L.8 311.8z"/><path id="i_3_" class="st0" d="M66.1 311.6h14.6l.2 59.7H66.1z"/><path id="с_3_" class="st0" d="M125.3 329.4c.2-.3 10.8-9.8 10.8-9.8-11.9-11.2-21.5-9.3-21.5-9.3-23.8 2.1-25.8 23.1-25.8 23.1v16.8c3.4 22.6 25.9 22.6 25.9 22.6 16.3 0 20.9-8.3 20.9-8.3l-10.1-10.3s-2.6 4.8-10 4.8c-7.4-.1-10.9-5.1-10.9-5.1-.6-1.2-.6-4.8-.6-4.8l.2-15.9c1-8.9 11-9.1 11-9.1 7.6 1.1 10.1 5.3 10.1 5.3z"/><path id="t_3_" class="st0" d="M144 311.3h46.9v13.8h-16l.1 46.3h-14.9l-.3-46H144z"/><path id="o_7_" class="st0" d="M248.3 330c-5.2-19.9-26.3-19.8-26.3-19.8-22.3 1.1-26 20.1-26 20.1v22c4.1 21.9 26.4 20.3 26.4 20.3 25.2.6 26.3-24 26.3-24l-.4-18.6zm-14.9 20.4s-2.3 9.3-11.4 9.3c-9 0-11.4-9.3-11.4-9.3v-17.3s2.8-8.8 11.4-8.8c8.5 0 11.4 8.8 11.4 8.8v17.3z"/><path id="r_3_" class="st0" d="M292.6 349.1s11.7-4.8 12.8-17.3c0 0 .1-17.9-17.1-20.3h-31.5v59.9h15.3l-.3-19.8 4.7-.2 12.8 20h17.8l-14.5-22.3zm-7.1-11h-13.7v-12.7l13.7-.5s4.8.8 4.8 5.9c0 5.2-4.8 7.3-4.8 7.3z"/><path id="U_3_" class="st0" d="M349 308l14.8 5v37.2s2.4 9.4 11.7 9.4 11.7-9.4 11.7-9.4v-37.3l15.2-4.9v43.5s-4.8 21.9-26.1 21.9c-23.8 0-27.3-22.8-27.3-22.8V308z"/><path id="k_3_" class="st0" d="M411.9 311.4h15.2v23.1l19.9-23.1h17l-23.6 28.7 24.3 31.1h-19l-18.5-24.9-.3 24.9h-15z"/><path id="s_7_" class="st0" d="M509 326.7l4.4-11.2c-8.7-5-22.3-5.1-22.3-5.1-21.6 0-22.6 15.6-22.6 15.6-.4 16.9 24.6 22.7 24.6 22.7 8.5 4.5 6.8 6.9 6.8 6.9-1.2 5.3-8.4 3.7-8.4 3.7-10.7-.2-20.9-4.7-20.9-4.7l.2 14c9.8 4.6 20.6 4 20.6 4 25.5 1.3 24.3-16.9 24.3-16.9 0-12.8-14.9-18.6-14.9-18.6-18.4-5.8-16-10.4-16-10.4.9-4.7 7.7-3.3 7.7-3.3 7.7.8 16.5 3.3 16.5 3.3z"/><path id="u_3_" class="st0" d="M524 311.5h14.9v39s2.2 8.7 11.6 8.7 11.2-9.3 11.2-9.3l.2-38.3h14.9l.3 37.5s-.5 10-8.7 17.2-18.5 6.6-18.5 6.6-9.8 0-16.7-5.2c-6.8-5.2-9.4-15.4-9.4-15.4l.2-40.8z"/><path id="s_6_" class="st0" d="M626.2 326.7l4.4-11.2c-8.7-5-22.3-5.1-22.3-5.1-21.6 0-22.6 15.6-22.6 15.6-.4 16.9 24.6 22.7 24.6 22.7 8.5 4.5 6.8 6.9 6.8 6.9-1.2 5.3-8.4 3.7-8.4 3.7-10.7-.2-20.9-4.7-20.9-4.7l.2 14c9.8 4.6 20.6 4 20.6 4 25.5 1.3 24.3-16.9 24.3-16.9 0-12.8-14.9-18.6-14.9-18.6-18.4-5.8-16-10.4-16-10.4.9-4.7 7.7-3.3 7.7-3.3 7.7.8 16.5 3.3 16.5 3.3z"/><path id="o_6_" class="st0" d="M692.2 330.3s-4.1-21.4-26-20.3c-21.9 1.2-26.3 20.3-26.3 20.3v21.8s3.3 21.1 26.3 20.7 26.3-21 26.3-21l-.3-21.5zm-26.1 29.1c-9.2 0-11.4-9.9-11.4-9.9v-16.4s1.6-8.9 11.4-8.9 11.1 8.9 11.1 8.9l.3 16.4s-2.3 9.9-11.4 9.9z"/><path id="f_7_" class="st0" d="M700.9 311.3h44l-4.7 14H716l-.1 10.3 21.3-.1-4.4 13h-17l.1 22.9h-15z"/><path id="f_6_" class="st0" d="M750.4 311.3h44l-4.7 14h-24.2l-.1 10.3 21.3-.1-4.4 13h-17l.1 22.9h-15z"/></g><path class="st0" d="M116.6 403.4v3.5h-11.8v6.6h13.5v3.5h-17.7v-23.1h17.3v3.5h-13.1v6h11.8zm30-9.6c9.5 0 11.2 6.5 11.2 11.5 0 10.5-7.3 11.6-12 11.6h-8.4v-23.1h9.2zm-5 19.7h3.9c2 0 7.7-.3 7.7-8.1 0-7.1-4.5-8.1-7-8.1h-4.6v16.2zm40-19.7v13.6c0 4.6 1.4 6.7 5.3 6.7 4 0 5.3-2.1 5.3-6.7v-13.6h4.2V408c0 3.7-.7 9.6-9.5 9.6-8.9 0-9.5-5.8-9.5-9.6v-14.2h4.2zm55.9 15.3c-.3 3.5-2.2 8.6-10 8.6-1.8 0-11.5-.2-11.5-11.8 0-9.5 5.5-12.6 11.2-12.6 7.9 0 9.7 4.9 9.9 8.2H233c-.3-1.9-1.4-4.7-5.7-4.7-5.1 0-6.7 4.2-6.7 9 0 5.4 3 8.5 7.1 8.5 3.8 0 5.5-2.6 5.6-5.1h4.2zm21.4 7.9h-4.5l8.7-23.1h4.2L276 417h-4.5l-1.7-4.9h-9.2l-1.7 4.9zm9.8-8.4l-3.5-10.3-3.5 10.3h7zm20.7-11.3v-3.5h18.7v3.5h-7.3V417h-4.2v-19.6h-7.2zm41.9-3.5V417h-4.2v-23.1h4.2zm31.4-.6c2 0 11.3.3 11.3 12.2s-9.3 12.2-11.3 12.2-11.3-.3-11.3-12.2 9.3-12.2 11.3-12.2zm0 20.9c5.7 0 6.8-5.2 6.8-8.7s-1.1-8.7-6.8-8.7-6.8 5.2-6.8 8.7 1.1 8.7 6.8 8.7zm35.5 2.9H394v-23.1h4.5l11.1 16.4v-16.4h4.2V417h-4.5l-11.1-16.4V417zm64.6-18.3V417h-4.2v-23.1h6.3l6.3 17.5 6.3-17.5h6.3V417h-4.2v-17.4l.1-.9h-.1l-6.8 18.3h-3.2l-6.8-18.3zm52.4-5.5c2 0 11.3.3 11.3 12.2s-9.3 12.2-11.3 12.2-11.3-.3-11.3-12.2 9.3-12.2 11.3-12.2zm0 20.9c5.7 0 6.8-5.2 6.8-8.7s-1.1-8.7-6.8-8.7c-5.7 0-6.8 5.2-6.8 8.7s1.1 8.7 6.8 8.7zm34.2-4.6c.1 1.7 1.2 4.6 6 4.6 1.6 0 4.9-.2 4.9-3.5 0-2.8-2.7-3.3-4.2-3.6l-2.7-.6c-3.8-.9-7.2-2-7.2-6.7 0-6.5 7.2-6.7 9.1-6.7 6.1 0 8.6 3.3 8.9 6.8H560c-.4-3.2-3.6-3.3-4.9-3.3-.6 0-4.5 0-4.5 3.1 0 2.4 2.6 2.8 5.1 3.3 5.3 1 8.9 2.1 8.9 7.3 0 6.5-5.8 7.4-9.7 7.4-7.9 0-9.8-4.5-9.9-8.1h4.4zm55.6-.4c-.3 3.5-2.2 8.6-10 8.6-1.8 0-11.5-.2-11.5-11.8 0-9.5 5.5-12.6 11.2-12.6 7.9 0 9.7 4.9 9.9 8.2h-4.2c-.3-1.9-1.4-4.7-5.7-4.7-5.1 0-6.7 4.2-6.7 9 0 5.4 3 8.5 7.1 8.5 3.8 0 5.5-2.6 5.6-5.1h4.3zm29.8-15.9c2 0 11.3.3 11.3 12.2s-9.3 12.2-11.3 12.2-11.3-.3-11.3-12.2 9.2-12.2 11.3-12.2zm0 20.9c5.7 0 6.8-5.2 6.8-8.7s-1.1-8.7-6.8-8.7-6.8 5.2-6.8 8.7 1 8.7 6.8 8.7zm40 2.9h-5.3l-6.3-23.1h4.8l4.5 18.2 4.1-18.2h4.8l4.1 18.2 4.5-18.2h4.8l-6.3 23.1H683l-4.1-18.1-4.1 18.1z" id="EDUCATION_копия_3"/></g><path class="st0" d="M396.7 1.3c-97.3 0-160.7 61-160.7 136.3s61.5 136.3 160.7 136.3c101.8 0 160.6-61 160.8-136.3.1-75.3-63-136.3-160.8-136.3zm100.5 162.2s-4.5 47.9-55.8 47.9c-46.3 0-55.8-41.5-55.8-41.5L371 210.1l-37.6.1-45.9-127 32.1-10 32.3 92.6 32.8-92.6L417 83v77.5s3.8 20.6 24.4 20.6 23.4-20.6 23.4-20.6V82.7l32.6-9.5v90.3z"/></g></svg>