<svg id="Capa_1" xmlns="http://www.w3.org/2000/svg" viewBox="0 0 441.6 512"><style>.st0{fill:#333b44}</style><path class="st0" d="M443 463.3l-27.3-329.5c-.6-7.8-7.1-13.8-14.9-13.8h-75v-15c0-57.9-47.1-105-105-105s-105 47.1-105 105v15h-75c-7.8 0-14.3 6-14.9 13.8L-1.4 463.3C-3.6 489.5 17.1 512 43.4 512h354.8c26.3 0 47-22.5 44.8-48.7zM145.8 105c0-41.4 33.6-75 75-75s75 33.6 75 75v15h-150v-15zm252.4 377H43.4c-8.8 0-15.7-7.5-14.9-16.3L54.6 150H387l26.2 315.8c.7 8.7-6.2 16.2-15 16.2z"/><path class="st0" d="M340.8 240h-47.6c1.7-4.8 2.6-9.8 2.6-15 0-24.9-20.1-45-45-45-11.2 0-21.7 4.1-30 11.5-8.3-7.4-18.8-11.5-30-11.5-24.9 0-45 20.1-45 45 0 5.2.9 10.2 2.6 15h-47.6c-8.3 0-15 6.7-15 15v60c0 8.3 6.7 15 15 15h15v107c0 8.3 6.7 15 15 15h180c8.3 0 15-6.7 15-15V330h15c8.3 0 15-6.7 15-15v-60c0-8.3-6.7-15-15-15zm-135 182h-60v-92h60v92zm0-122h-90v-30h90v30zm0-60h-15c-8.3 0-15-6.7-15-15s6.7-15 15-15 15 6.7 15 15v15zm30-15c0-8.3 6.7-15 15-15s15 6.7 15 15-6.7 15-15 15h-15v-15zm60 197h-60v-92h60v92zm30-122h-90v-30h90v30z"/></svg>