<svg id="Capa_1" xmlns="http://www.w3.org/2000/svg" viewBox="0 0 512 512"><style>.st0{fill:#333b44}</style><path class="st0" d="M472.4 104.2c-13.5 0-24.5-11-24.5-24.5 0-4.2-3.4-7.5-7.5-7.5s-7.5 3.4-7.5 7.5c0 13.5-11 24.5-24.5 24.5-4.1 0-7.5 3.4-7.5 7.5s3.4 7.5 7.5 7.5c13.5 0 24.5 11 24.5 24.5 0 4.2 3.4 7.5 7.5 7.5s7.5-3.4 7.5-7.5c0-13.5 11-24.5 24.5-24.5 4.2 0 7.5-3.4 7.5-7.5s-3.3-7.5-7.5-7.5zm-32 16.4c-2.5-3.4-5.5-6.4-8.9-8.9 3.4-2.5 6.4-5.5 8.9-8.9 2.5 3.4 5.5 6.4 8.9 8.9-3.5 2.5-6.5 5.5-8.9 8.9zm0 240.1c-13.5 0-24.5-11-24.5-24.5 0-4.2-3.4-7.5-7.5-7.5s-7.5 3.4-7.5 7.5c0 13.5-11 24.5-24.5 24.5-4.2 0-7.5 3.4-7.5 7.5s3.4 7.5 7.5 7.5c13.5 0 24.5 11 24.5 24.5 0 4.2 3.4 7.5 7.5 7.5s7.5-3.4 7.5-7.5c0-13.5 11-24.5 24.5-24.5 4.2 0 7.5-3.4 7.5-7.5s-3.4-7.5-7.5-7.5zm-32.1 16.4c-2.5-3.4-5.5-6.4-8.9-8.9 3.4-2.5 6.4-5.5 8.9-8.9 2.5 3.4 5.5 6.4 8.9 8.9-3.4 2.5-6.4 5.5-8.9 8.9zm-272.5-80.5c-13.5 0-24.5-11-24.5-24.5 0-4.2-3.4-7.5-7.5-7.5s-7.5 3.4-7.5 7.5c0 13.5-11 24.5-24.5 24.5-4.2 0-7.5 3.4-7.5 7.5s3.4 7.5 7.5 7.5c13.5 0 24.5 11 24.5 24.5 0 4.2 3.4 7.5 7.5 7.5s7.5-3.4 7.5-7.5c0-13.5 11-24.5 24.5-24.5 4.1 0 7.5-3.4 7.5-7.5 0-4.2-3.4-7.5-7.5-7.5zM103.7 313c-2.5-3.4-5.5-6.4-8.9-8.9 3.4-2.5 6.4-5.5 8.9-8.9 2.5 3.4 5.5 6.4 8.9 8.9-3.4 2.5-6.4 5.5-8.9 8.9zm24.1-264.9c-18 0-32.6-14.6-32.6-32.6 0-4.2-3.4-7.5-7.5-7.5s-7.5 3.4-7.5 7.5c0 18-14.6 32.6-32.6 32.6-4.2 0-7.5 3.4-7.5 7.5 0 4.2 3.4 7.5 7.5 7.5 18 0 32.6 14.6 32.6 32.6 0 4.2 3.4 7.5 7.5 7.5 4.2 0 7.5-3.4 7.5-7.5 0-18 14.6-32.6 32.6-32.6 4.1 0 7.5-3.4 7.5-7.5s-3.4-7.5-7.5-7.5zM87.7 70C84 64.3 79 59.3 73.2 55.6 79 51.9 84 47 87.7 41.2c3.7 5.8 8.7 10.7 14.4 14.4-5.8 3.7-10.7 8.7-14.4 14.4zm63.6 57.8c0-2.4-1.2-4.7-3.1-6.1-2-1.4-4.5-1.8-6.8-1l-72.1 24c-3.1 1-5.1 3.9-5.1 7.1v52.6c-4.8-2.5-10.5-4-16.5-4-17.4 0-31.6 12-31.6 26.8S30.3 254 47.7 254s31.6-12 31.6-26.8c0-.9-.1-1.8-.2-2.7.1-.5.2-1 .2-1.5v-65.7l57.1-19V174c-4.8-2.5-10.5-4-16.5-4-17.4 0-31.6 12-31.6 26.8s14.2 26.8 31.6 26.8 31.6-12 31.6-26.8v-69zM47.6 238.9c-9 0-16.5-5.4-16.5-11.7 0-6.4 7.6-11.7 16.5-11.7s16.5 5.4 16.5 11.7c0 6.3-7.5 11.7-16.5 11.7zm72.1-30.5c-9 0-16.5-5.4-16.5-11.7s7.6-11.7 16.5-11.7 16.5 5.4 16.5 11.7-7.5 11.7-16.5 11.7zm376.3-39c0-2.4-1.2-4.7-3.1-6.1-2-1.4-4.5-1.8-6.8-1l-72.1 24c-3.1 1-5.1 3.9-5.1 7.1V246c-4.8-2.5-10.5-4-16.5-4-17.4 0-31.6 12-31.6 26.8s14.2 26.8 31.6 26.8 31.6-12 31.6-26.8v-69.9l57.1-19v35.7c-4.8-2.5-10.5-4-16.5-4-17.4 0-31.6 12-31.6 26.8s14.2 26.8 31.6 26.8 31.6-12 31.6-26.8c0-.6 0-1.2-.1-1.8 0-.3.1-.7.1-1l-.2-66.2zM392.3 280.5c-9 0-16.5-5.4-16.5-11.7 0-6.4 7.6-11.7 16.5-11.7s16.5 5.4 16.5 11.7-7.6 11.7-16.5 11.7zm72.1-30.4c-9 0-16.5-5.4-16.5-11.7s7.6-11.7 16.5-11.7 16.5 5.4 16.5 11.7-7.5 11.7-16.5 11.7z"/><path class="st0" d="M389 .6c-12.5-2.8-25 5-28 17.5l-22.1 65.8-46.2 52.4h-64.1L208 95.1 229.4 31c2-6 1.5-12.4-1.3-18s-7.6-9.8-13.6-11.8-12.3-1.5-18 1.3c-5.6 2.8-9.8 7.6-11.8 13.6l-23.2 69.2c-1.7 5.2-1.6 10.9.4 16 .1.1.1.3.2.4l38.1 83.4-7.7 68.9-39.5 87.1c-1 2.3-.9 4.9.4 7 1.3 2 3.4 3.4 5.8 3.6l-6.2 13.4c-.2.4-.3.8-.4 1.2l-31.1 116.3v.1c-3.1 12.6 4.5 25.4 17.1 28.6 1.9.5 3.8.7 5.7.7 9.9 0 19.7-6.5 22.7-15.2l40-117.7 11.2-24.7L253 356c1.3 19.6 1.4 20.7 1.5 21.2.1.7.3 1.4.6 2.1L305 492.6c1.2 6.6 5.2 12.5 11 16 6.2 3.8 13.9 4.4 20.7 1.8 4-1.5 7.5-4.2 10.1-7.5 3.9-5 5.6-11.1 4.8-17.4l-.3-1.5-39.5-117.4c-.1-1.3-.4-4.2-.7-8.1l25.1 1.1c5.1.2 9-4.8 7.5-9.7l-8.5-27.8c-1.2-4-5.4-6.2-9.4-5-4 1.2-6.2 5.4-5 9.4l5.3 17.6-154.6-7 19.3-42.4 115.7-14.5 5.1 15.7c1.2 4 5.4 6.2 9.4 5 4-1.2 6.2-5.4 5-9.4l-13.9-44.4 7.7-69.5 57.6-65.6c3-3 5.1-6.8 6.1-11l23.6-71.8c.1-.2.1-.5.2-.7C409.7 16 401.6 3.4 389 .6zm-93.4 357.3c.6 6.9 1 11.1 1 11.1.1.6.2 1.1.4 1.7L336.5 488c.1 2-.5 4-1.8 5.6-1.4 1.8-3.4 2.9-5.7 3.2-.4 0-.7.1-1.1.1-4.3 0-7.9-3.2-8.4-7.5-.1-.7-.3-1.4-.6-2.1l-49.8-113.1c-.1-1.7-.5-6.3-1.2-17.7l27.7 1.4zm-120.2-5.5l26.5 1.2-8.9 19.5c-.1.2-.2.5-.3.7l-40.1 118.1c-.7 2.1-4.3 5.1-8.4 5.1-.7 0-1.4-.1-2.1-.3-4.5-1.1-7.3-5.7-6.2-10.3l30.9-115.7 8.6-18.3zm62.4-201.1h42.7v19.4l-48.5 3.7 5.8-23.1zm-61.9-55.6c-.7-1.8-.7-3.8-.1-5.6L199 20.9c.7-2.2 2.2-3.9 4.3-4.9 2-1 4.3-1.2 6.5-.5s3.9 2.2 4.9 4.3c1 2 1.2 4.3.5 6.5l-22.4 67.1c-.6 1.9-.5 4 .4 5.7l24 48.1c1 2.1 3 3.5 5.2 4l-5.7 22.9c-.1.6-.2 1.1-.2 1.6l-3.9.3-36.7-80.3zm21.9 183l8.9-19.6c.3-.7.5-1.5.6-2.3l2.7-24.6 88.1 22 3.5 11.5-103.8 13zm99.8-40.1l-85.8-21.5 2.9-26.3 88.9-6.8-6 54.6zm94.6-213.5l-23.5 71.7c-.1.2-.1.5-.2.7-.4 1.6-1.1 3-2.3 4.2-.1.1-.2.2-.3.4l-58.5 66.6-11.9.9v-18.3h.5c2.2 0 4.3-1 5.7-2.6 1-1.2 32.7-37.1 49.4-56.1.7-.8 1.2-1.6 1.5-2.6l22.7-67.6c.1-.2.2-.5.2-.8.5-2.2 1.8-4.1 3.7-5.3 1.9-1.2 4.2-1.6 6.4-1.1s4.1 1.8 5.3 3.7c1.3 1.9 1.7 4.1 1.3 6.2z"/><path class="st0" d="M319.6 47.6c0-13-10.6-23.5-23.5-23.5-10.7 0-19.8 7.2-22.6 17-3.1-.6-6.2-.9-9.5-.9-26.2 0-47.6 21.3-47.6 47.6 0 26.2 21.4 47.6 47.6 47.6 26.2 0 47.6-21.3 47.6-47.6 0-6.9-1.5-13.5-4.2-19.5 7.4-4.2 12.2-12 12.2-20.7zM264 120.2c-15.4 0-28.3-10.7-31.7-25h63.4c-3.4 14.3-16.3 25-31.7 25zm-31.7-40c3.4-14.3 16.3-25 31.7-25s28.3 10.7 31.7 25h-63.4zm66.8-24.6c-3.3-3.6-7.2-6.7-11.4-9.2.6-4.1 4.1-7.3 8.4-7.3 4.7 0 8.5 3.8 8.5 8.5 0 3.5-2.2 6.7-5.5 8z"/></svg>