<svg id="Capa_1" xmlns="http://www.w3.org/2000/svg" viewBox="0 0 60 60"><style>.st0{fill:#333b44}</style><circle class="st0" cx="30" cy="26" r="1"/><circle class="st0" cx="33" cy="24" r="1"/><circle class="st0" cx="27" cy="24" r="1"/><circle class="st0" cx="24" cy="22" r="1"/><circle class="st0" cx="36" cy="22" r="1"/><circle class="st0" cx="39" cy="20" r="1"/><circle class="st0" cx="21" cy="20" r="1"/><circle class="st0" cx="30" cy="22" r="1"/><circle class="st0" cx="30" cy="34" r="1"/><circle class="st0" cx="30" cy="37" r="1"/><circle class="st0" cx="30" cy="40" r="1"/><circle class="st0" cx="30" cy="43" r="1"/><circle class="st0" cx="30" cy="46" r="1"/><circle class="st0" cx="30" cy="49" r="1"/><path class="st0" d="M54 58h-3v-4h-5V43.8c0-2.7-1.3-5.2-3.6-6.7L31.8 30l10.6-7.1c2.2-1.5 3.6-4 3.6-6.7V6h5V2h3c.6 0 1-.4 1-1s-.4-1-1-1H6c-.6 0-1 .4-1 1s.4 1 1 1h3v4h5v10.2c0 2.7 1.3 5.2 3.6 6.7L28.2 30l-10.6 7.1c-2.2 1.5-3.6 4-3.6 6.7V54H9v4H6c-.6 0-1 .4-1 1s.4 1 1 1h48c.6 0 1-.4 1-1s-.4-1-1-1zM11 4V2h38v2H11zm7.7 17.3c-1.7-1.1-2.7-3-2.7-5V6h28v10.2c0 2-1 3.9-2.7 5L30 28.8l-11.3-7.5zM16 43.8c0-2 1-3.9 2.7-5L30 31.2l11.3 7.5c1.7 1.1 2.7 3 2.7 5V54H16V43.8zM11 56h38v2H11v-2z"/></svg>