<svg xmlns="http://www.w3.org/2000/svg" xmlns:xlink="http://www.w3.org/1999/xlink" xmlns:fi="http://pattern.flaticon.com/" width="700" height="350"><rect width="100%" height="100%" opacity=".03" fill="#fff"/><defs><g transform="translate(162.383 164.335) scale(.0649)" id="a"><path d="M77.327 360.177c-21.89 0-39.698 17.808-39.698 39.698s17.808 39.698 39.698 39.698 39.698-17.808 39.698-39.698-17.807-39.698-39.698-39.698zm0 60.787c-11.629 0-21.089-9.461-21.089-21.089 0-11.629 9.46-21.089 21.089-21.089 11.629 0 21.089 9.46 21.089 21.089.001 11.628-9.458 21.089-21.089 21.089zm304.592-60.787c-21.89 0-39.698 17.808-39.698 39.698s17.808 39.698 39.698 39.698 39.698-17.808 39.698-39.698-17.808-39.698-39.698-39.698zm0 60.787c-11.629 0-21.089-9.461-21.089-21.089 0-11.629 9.46-21.089 21.089-21.089 11.629 0 21.089 9.46 21.089 21.089.001 11.628-9.46 21.089-21.089 21.089z"/><path d="M508.771 423.221a9.307 9.307 0 0 0-13.123.974l-.732.85c-11.815 13.702-29.956 19.128-46.842 14.849a77.346 77.346 0 0 0 11.174-40.018c0-42.639-34.69-77.327-77.327-77.327-26.436 0-49.807 13.342-63.758 33.638l-81.235-78.211a9.305 9.305 0 0 0-12.659-.231l-16.471 14.743L35.211 53.825a2.807 2.807 0 0 1-.089-.133 1.24 1.24 0 0 1 .254-.22c.034.029.074.065.119.109l270.927 264.91a9.304 9.304 0 0 0 13.157-.154 9.304 9.304 0 0 0-.154-13.157l-31.792-31.282L439.106 64.74c5.867-8.101 4.628-18.721-2.944-25.255-7.572-6.535-18.261-6.203-25.414.786L229.624 217.225 48.498 40.27c-7.154-6.991-17.842-7.321-25.414-.787s-8.81 17.156-2.948 25.25l151.349 209.293-58.575 57.227a76.815 76.815 0 0 0-35.58-8.706C34.69 322.547 0 357.235 0 399.875a77.323 77.323 0 0 0 18.698 50.421 77.288 77.288 0 0 0 58.631 26.908c42.639 0 77.327-34.69 77.327-77.327a76.971 76.971 0 0 0-4.658-26.439l36.232-34.882a9.303 9.303 0 0 0 .249-13.155 9.303 9.303 0 0 0-13.155-.249l-32.237 31.036a77.903 77.903 0 0 0-12.551-14.183l53.973-52.73 16.261 22.486a9.307 9.307 0 0 0 6.543 3.799 9.308 9.308 0 0 0 7.201-2.319l17.729-15.869 79.007 76.066a76.962 76.962 0 0 0-4.658 26.439c0 42.639 34.69 77.327 77.327 77.327 20.18 0 39.404-7.878 53.772-21.79 7.755 3.043 15.837 4.547 23.855 4.547 18.512 0 36.65-7.905 49.465-22.765l.733-.851c3.354-3.895 2.918-9.77-.973-13.124zM423.753 53.58c.045-.043.084-.079.119-.108.089.056.185.139.254.218-.024.038-.052.083-.089.134l-149.859 206.93-31.24-30.521L423.753 53.58zM136.047 399.875c0 32.378-26.341 58.719-58.719 58.719a58.702 58.702 0 0 1-44.527-20.438 58.7 58.7 0 0 1-14.192-38.281c0-32.378 26.342-58.719 58.719-58.719 32.377-.001 58.719 26.34 58.719 58.719zm290.398 38.281a58.698 58.698 0 0 1-44.527 20.438c-32.376 0-58.718-26.341-58.718-58.719s26.342-58.719 58.719-58.719 58.719 26.341 58.719 58.719a58.7 58.7 0 0 1-14.193 38.281z"/><circle cx="216" cy="260" r="9"/></g><g transform="rotate(-6.847 2766.025 -1998.02) scale(.07455)" id="c"><circle cx="182" cy="395" r="8"/><circle cx="182" cy="274" r="8"/><path d="M470.1 32.943a15.04 15.04 0 0 0-14.266-1.239l-41.939 18.133L218.431 5.201a122.304 122.304 0 0 0-16.742-3.783l-.173-.024A123.808 123.808 0 0 0 182.973 0C114.934 0 59.581 55.353 59.581 123.392s55.353 123.392 123.392 123.392c15.16 0 29.687-2.754 43.116-7.778v152.05c0 23.774-19.341 43.116-43.116 43.116s-43.116-19.341-43.116-43.116V265.98a8.595 8.595 0 1 0-17.19 0v125.073c0 30.334 22.517 55.498 51.711 59.683v28.6c0 8.531-6.94 15.472-15.472 15.472h-43.012c-8.531 0-15.472-6.94-15.472-15.472V360.72c0-18.01-14.652-32.663-32.662-32.663-18.01 0-32.662 14.652-32.662 32.663v62.46a8.595 8.595 0 1 0 17.19 0v-62.46c0-8.531 6.94-15.472 15.472-15.472 8.531 0 15.472 6.94 15.472 15.472v118.616c0 18.01 14.652 32.662 32.662 32.662h43.012c18.01 0 32.663-14.652 32.663-32.662v-28.6c29.195-4.185 51.711-29.349 51.711-59.683V231.007c37.616-21.163 63.086-61.467 63.086-107.615 0-35.044-14.685-66.722-38.224-89.205l137.992 31.511v104.136l-108.733 30.72a8.594 8.594 0 0 0-5.934 10.608 8.598 8.598 0 0 0 8.266 6.261c.774 0 1.56-.105 2.341-.327l112.049-31.656 41.714 18.035a15.082 15.082 0 0 0 5.993 1.243c2.895 0 5.77-.838 8.275-2.483a15.04 15.04 0 0 0 6.798-12.603V45.546a15.05 15.05 0 0 0-6.803-12.603zm-180.927 90.449c0 58.56-47.641 106.201-106.201 106.201S76.771 181.952 76.771 123.392c0-58.56 47.643-106.201 106.202-106.201 5.454 0 10.813.415 16.048 1.211l15.039 3.434c43.438 13.324 75.113 53.808 75.113 101.556zm170.535 63.029l-36.387-15.732V64.491l36.387-15.733v137.663z"/><path d="M182.973 71.168c-28.797 0-52.224 23.428-52.224 52.224 0 28.797 23.428 52.224 52.224 52.224 28.797 0 52.224-23.428 52.224-52.224 0-28.797-23.427-52.224-52.224-52.224zm0 87.257c-19.318 0-35.034-15.716-35.034-35.034s15.716-35.034 35.034-35.034c19.318 0 35.034 15.716 35.034 35.034s-15.716 35.034-35.034 35.034z"/><circle cx="103" cy="98" r="8"/><circle cx="98" cy="129" r="8"/><circle cx="108" cy="158" r="8"/></g><g transform="translate(30 97) scale(.11719)" id="e"><path d="M413.708 218.852c-20.117 0-36.483 16.367-36.483 36.483v201.099c0 21.354-17.374 38.728-38.728 38.728-21.354 0-38.728-17.374-38.728-38.728v-5.017c16.678-6.889 28.702-23.236 29.275-41.983.392-12.821-4.304-24.944-13.219-34.137-6.299-6.493-14.119-10.914-22.679-12.959V18.168c10.934 3.556 18.861 13.845 18.861 25.951v303.728a8.418 8.418 0 0 0 8.419 8.419 8.419 8.419 0 0 0 8.419-8.419V44.118C328.845 19.792 309.054 0 284.727 0a8.419 8.419 0 0 0-8.419 8.419V13.8h-11.454c-11.489 0-20.837 9.347-20.837 20.837v180.217c0 11.489 9.346 20.837 20.837 20.837h11.454v125.724a46.766 46.766 0 0 0-11.224 2.832l-62.687-116.941 10.087-5.407a20.697 20.697 0 0 0 10.103-12.34 20.694 20.694 0 0 0-1.582-15.869L135.86 54.856a20.691 20.691 0 0 0-12.339-10.103 20.693 20.693 0 0 0-15.869 1.583l-10.088 5.408-1.062-1.98a8.422 8.422 0 0 0-4.986-4.082 8.429 8.429 0 0 0-6.412.64c-10.386 5.566-17.981 14.845-21.388 26.126-3.408 11.282-2.218 23.214 3.35 33.6L239.945 428.55c7.949 16.281 24.24 26.357 42.184 26.356.266 0 .535-.024.803-.028v1.556c0 30.639 24.927 55.566 55.566 55.566s55.566-24.927 55.566-55.566V255.335c0-10.831 8.813-19.645 19.644-19.645 10.831 0 19.645 8.813 19.645 19.645v70.137c0 4.65 3.768 8.419 8.419 8.419s8.419-3.769 8.419-8.419v-70.137c0-20.116-16.366-36.483-36.483-36.483zm-137.4 0h-11.454a4.003 4.003 0 0 1-3.998-3.998V34.637a4.003 4.003 0 0 1 3.998-3.998h11.454v188.213zm-160.7-157.677a3.98 3.98 0 0 1 3.044-.303 3.971 3.971 0 0 1 2.366 1.939l85.146 158.835c.68 1.27.483 2.453.304 3.044a3.976 3.976 0 0 1-1.939 2.367l-10.088 5.408-88.923-165.881 10.09-5.409zM284.33 437.993c-12.42.864-23.911-5.779-29.307-16.939a8.343 8.343 0 0 0-.159-.313L81.906 98.093c-3.443-6.422-4.179-13.801-2.072-20.776A27.144 27.144 0 0 1 86.263 66.3l.364.679c.024.047.043.097.068.144l96.878 180.723c.019.036.044.066.064.101l70.477 131.472a8.422 8.422 0 0 0 11.932 3.131 29.98 29.98 0 0 1 16.092-4.67c8.211 0 15.884 3.247 21.603 9.144 5.717 5.893 8.727 13.671 8.477 21.899-.467 15.235-12.716 28.004-27.888 29.07z"/><circle cx="281" cy="407" r="8"/></g><g transform="translate(44 293) scale(.11719)" id="g"><circle cx="256" cy="468" r="8"/><path d="M256.001 345.902c82.598 0 149.799-77.585 149.799-172.951S338.599 0 256.001 0c-82.6 0-149.8 77.585-149.8 172.951 0 79.5 46.704 146.633 110.096 166.773v132.572c0 21.892 17.811 39.704 39.704 39.704 21.892 0 39.704-17.811 39.704-39.704v-98.528c0-4.767-3.863-8.631-8.631-8.631s-8.631 3.865-8.631 8.631v98.528c0 12.374-10.067 22.441-22.441 22.441-12.374 0-22.441-10.067-22.441-22.441V343.961a130.667 130.667 0 0 0 22.44 1.941zM123.463 172.951c0-85.847 59.456-155.689 132.537-155.689s132.536 69.841 132.536 155.689S329.082 328.64 256.001 328.64s-132.538-69.842-132.538-155.689z"/><path d="M256.001 37.632c-61.757 0-112 60.704-112 135.319s50.243 135.319 112 135.319S368 247.566 368 172.951 317.757 37.632 256.001 37.632zm0 253.377c-52.24 0-94.737-52.96-94.737-118.057s42.498-118.058 94.737-118.058c52.238 0 94.736 52.96 94.736 118.057s-42.498 118.058-94.736 118.058z"/></g><g transform="translate(248.105 85.105) scale(.08162)" id="i"><circle cx="87" cy="43" r="8"/><circle cx="423" cy="44" r="8"/><circle cx="115" cy="38" r="8"/><circle cx="150" cy="38" r="8"/><circle cx="185" cy="38" r="8"/><circle cx="220" cy="38" r="8"/><circle cx="256" cy="38" r="8"/><circle cx="291" cy="38" r="8"/><circle cx="326" cy="38" r="8"/><circle cx="361" cy="38" r="8"/><circle cx="396" cy="38" r="8"/><circle cx="115" cy="474" r="8"/><circle cx="150" cy="474" r="8"/><circle cx="185" cy="474" r="8"/><circle cx="220" cy="474" r="8"/><circle cx="256" cy="474" r="8"/><circle cx="291" cy="474" r="8"/><circle cx="326" cy="474" r="8"/><circle cx="361" cy="474" r="8"/><circle cx="396" cy="474" r="8"/><circle cx="422" cy="470" r="8"/><circle cx="84" cy="109" r="8"/><circle cx="84" cy="146" r="8"/><circle cx="84" cy="183" r="8"/><circle cx="84" cy="220" r="8"/><circle cx="84" cy="257" r="8"/><circle cx="84" cy="294" r="8"/><circle cx="84" cy="330" r="8"/><circle cx="84" cy="367" r="8"/><circle cx="84" cy="404" r="8"/><circle cx="84" cy="441" r="8"/><circle cx="90" cy="469" r="8"/><circle cx="84" cy="72" r="8"/><circle cx="426" cy="109" r="8"/><circle cx="426" cy="146" r="8"/><circle cx="426" cy="183" r="8"/><circle cx="426" cy="220" r="8"/><circle cx="426" cy="257" r="8"/><circle cx="426" cy="294" r="8"/><circle cx="426" cy="330" r="8"/><circle cx="426" cy="367" r="8"/><circle cx="426" cy="404" r="8"/><circle cx="426" cy="441" r="8"/><circle cx="426" cy="72" r="8"/><path d="M427.328 0H84.672c-21.841 0-39.61 17.769-39.61 39.612V472.39c0 21.841 17.769 39.611 39.611 39.611h342.655c21.841 0 39.611-17.769 39.611-39.611V39.612C466.939 17.769 449.17 0 427.328 0zm.001 494.56H84.672c-12.224 0-22.17-9.946-22.17-22.17V39.612c0-12.226 9.946-22.171 22.17-22.171h342.655c12.225 0 22.17 9.946 22.17 22.171V472.39h.001c.001 12.225-9.945 22.17-22.169 22.17z"/><path d="M396.272 155.316a8.72 8.72 0 0 0 8.72-8.72v-78.03a8.72 8.72 0 0 0-8.72-8.72H115.729a8.72 8.72 0 0 0-8.72 8.72v374.867a8.72 8.72 0 0 0 8.72 8.72h280.543a8.72 8.72 0 0 0 8.72-8.72V192.185a8.72 8.72 0 1 0-17.44 0v242.528H124.449V77.286h263.103v69.309a8.72 8.72 0 0 0 8.72 8.721z"/></g><path d="M327.525 456.45h-83.579v-24.255h98.439a8.61 8.61 0 0 0 0-17.22h-98.439V390.72h98.439a8.61 8.61 0 0 0 0-17.22h-98.439v-24.253h98.439a8.61 8.61 0 0 0 0-17.22h-98.439v-24.255h98.439a8.61 8.61 0 0 0 0-17.22h-98.439v-20.809h98.439a8.61 8.61 0 0 0 0-17.22h-98.439v-27.699h98.439a8.61 8.61 0 0 0 0-17.22h-98.439v-24.255h98.439a8.61 8.61 0 0 0 0-17.22h-98.439v-24.253h98.439a8.61 8.61 0 0 0 0-17.22h-98.439V100.4h98.439a8.61 8.61 0 0 0 0-17.22h-98.439V58.929h81.889c16.246 0 29.465-13.218 29.465-29.465C355.3 13.218 342.083 0 325.835 0H184.827C169.318 0 156.7 12.619 156.7 28.128V80.55a8.61 8.61 0 0 0 17.22 0V28.128c0-6.014 4.894-10.908 10.908-10.908h141.009c6.751 0 12.245 5.493 12.245 12.246s-5.493 12.245-12.245 12.245h-90.5a8.61 8.61 0 0 0-8.61 8.61v406.867c0 9.089 7.394 16.483 16.483 16.483h84.316c5.82 0 10.556 4.735 10.556 10.555 0 5.819-4.735 10.556-10.556 10.556H184.827c-6.014 0-10.908-4.894-10.908-10.908V126.278a8.61 8.61 0 0 0-17.22 0v357.594c0 15.509 12.619 28.128 28.128 28.128h142.698c15.315 0 27.775-12.46 27.775-27.775 0-15.316-12.46-27.775-27.775-27.775z" transform="rotate(-34.506 504.986 -379.464) scale(.07071)" id="k"/><g transform="rotate(-11.88 1372.074 -725.207) scale(.06996)" id="m"><circle cx="223" cy="69" r="8"/><circle cx="255" cy="69" r="8"/><circle cx="288" cy="69" r="8"/><circle cx="239" cy="96" r="8"/><circle cx="272" cy="96" r="8"/><circle cx="223" cy="127" r="8"/><circle cx="255" cy="127" r="8"/><circle cx="288" cy="127" r="8"/><circle cx="239" cy="155" r="8"/><circle cx="272" cy="155" r="8"/><circle cx="223" cy="184" r="8"/><circle cx="255" cy="184" r="8"/><circle cx="288" cy="184" r="8"/><circle cx="223" cy="239" r="8"/><circle cx="255" cy="239" r="8"/><circle cx="288" cy="239" r="8"/><circle cx="239" cy="212" r="8"/><circle cx="272" cy="212" r="8"/><path d="M355.625 111.767a8.732 8.732 0 0 0 0-17.464h-25.333V78.208h25.333a8.732 8.732 0 0 0 0-17.464h-25.347c-.282-17.549-14.364-31.794-31.848-32.34C294.501 12.129 279.826 0 262.362 0h-12.726c-17.463 0-32.138 12.129-36.067 28.402-17.483.546-31.566 14.792-31.848 32.34h-25.347a8.732 8.732 0 0 0 0 17.464h25.333V94.3h-25.333a8.732 8.732 0 0 0 0 17.464h25.333v16.094h-25.333a8.732 8.732 0 0 0 0 17.464h25.333v16.096h-25.333a8.732 8.732 0 0 0 0 17.464h25.333v16.094h-25.333a8.732 8.732 0 0 0 0 17.464h25.333v16.094h-25.333a8.732 8.732 0 0 0 0 17.464h25.333v1.854c0 18.14 14.759 32.899 32.899 32.899h9.013v198.788c0 17.894 14.559 32.453 32.453 32.453s32.453-14.559 32.453-32.453v-163a8.731 8.731 0 0 0-8.732-8.732 8.731 8.731 0 0 0-8.732 8.732v163.003c0 8.266-6.724 14.988-14.988 14.988s-14.988-6.723-14.988-14.988V280.759h56.304c18.141 0 32.899-14.759 32.899-32.899v-1.854h25.333a8.732 8.732 0 0 0 0-17.464h-25.333v-16.094h25.333a8.732 8.732 0 0 0 0-17.464h-25.333V178.89h25.333a8.732 8.732 0 0 0 0-17.464h-25.333V145.33h25.333a8.731 8.731 0 0 0 8.732-8.732 8.731 8.731 0 0 0-8.732-8.732h-25.333V111.77h25.337zM249.638 17.465h12.726c7.696 0 14.374 4.449 17.594 10.911h-47.913c3.219-6.462 9.895-10.911 17.593-10.911zm63.19 230.395h-.001c0 8.511-6.924 15.434-15.434 15.434H214.61c-8.511 0-15.434-6.923-15.434-15.434V61.276c0-8.511 6.924-15.435 15.434-15.435h82.783c8.511 0 15.434 6.924 15.434 15.435V247.86z"/></g><g id="o"><path d="M393.483 246.221a8.89 8.89 0 0 0-8.889 8.889v227.988c0 6.135-4.991 11.124-11.125 11.124H138.531c-6.135 0-11.125-4.99-11.125-11.124V168.55c0-21.54 17.524-39.064 39.065-39.064h179.058c21.541 0 39.065 17.524 39.065 39.064v37.381a8.89 8.89 0 0 0 17.778 0V168.55c0-28.063-20.448-51.426-47.224-56.012V32.777C355.147 14.703 340.444 0 322.37 0H189.629c-18.074 0-32.777 14.703-32.777 32.777v79.762c-26.776 4.586-47.224 27.948-47.224 56.012v314.547c0 15.937 12.966 28.902 28.903 28.902h234.938c15.937 0 28.903-12.965 28.903-28.902V255.11a8.89 8.89 0 0 0-8.889-8.889zM174.629 32.777c0-8.271 6.728-15 15-15H322.37c8.271 0 15 6.728 15 15v78.931h-27.91V55.803a8.89 8.89 0 0 0-17.778 0v55.905h-26.793V55.803a8.89 8.89 0 0 0-17.778 0v55.905h-26.793V55.803a8.89 8.89 0 0 0-17.778 0v55.905h-27.91V32.777z" transform="matrix(.06443 .00678 -.00678 .06443 165.242 46.77)"/><path d="M319.864 227.848h-127.73c-17.701 0-32.102 14.4-32.102 32.101v103.81c0 17.701 14.401 32.101 32.102 32.101h127.729c17.701 0 32.102-14.4 32.102-32.101v-103.81c.001-17.701-14.4-32.101-32.101-32.101zm0 150.234h-127.73c-7.898 0-14.324-6.425-14.324-14.323v-103.81c0-7.898 6.426-14.323 14.324-14.323h127.729c7.898 0 14.324 6.425 14.324 14.323v103.81h.001c0 7.898-6.426 14.323-14.324 14.323z" transform="matrix(.06443 .00678 -.00678 .06443 165.242 46.77)"/></g></defs><g fi:class="KUsePattern"><pattern id="b" width="350" height="350" patternUnits="userSpaceOnUse"><use xlink:href="#a" x="-350" y="-350"/><use xlink:href="#a" y="-350"/><use xlink:href="#a" x="350" y="-350"/><use xlink:href="#a" x="-350"/><use xlink:href="#a"/><use xlink:href="#a" x="350"/><use xlink:href="#a" x="-350" y="350"/><use xlink:href="#a" y="350"/><use xlink:href="#a" x="350" y="350"/></pattern><rect width="100%" height="100%" fill="url(#b)"/></g><g fi:class="KUsePattern"><pattern id="d" width="350" height="350" patternUnits="userSpaceOnUse"><use xlink:href="#c" x="-350" y="-350"/><use xlink:href="#c" y="-350"/><use xlink:href="#c" x="350" y="-350"/><use xlink:href="#c" x="-350"/><use xlink:href="#c"/><use xlink:href="#c" x="350"/><use xlink:href="#c" x="-350" y="350"/><use xlink:href="#c" y="350"/><use xlink:href="#c" x="350" y="350"/></pattern><rect width="100%" height="100%" fill="url(#d)"/></g><g fi:class="KUsePattern"><pattern id="f" width="350" height="350" patternUnits="userSpaceOnUse"><use xlink:href="#e" x="-350" y="-350"/><use xlink:href="#e" y="-350"/><use xlink:href="#e" x="350" y="-350"/><use xlink:href="#e" x="-350"/><use xlink:href="#e"/><use xlink:href="#e" x="350"/><use xlink:href="#e" x="-350" y="350"/><use xlink:href="#e" y="350"/><use xlink:href="#e" x="350" y="350"/></pattern><rect width="100%" height="100%" fill="url(#f)"/></g><g fi:class="KUsePattern"><pattern id="h" width="350" height="350" patternUnits="userSpaceOnUse"><use xlink:href="#g" x="-350" y="-350"/><use xlink:href="#g" y="-350"/><use xlink:href="#g" x="350" y="-350"/><use xlink:href="#g" x="-350"/><use xlink:href="#g"/><use xlink:href="#g" x="350"/><use xlink:href="#g" x="-350" y="350"/><use xlink:href="#g" y="350"/><use xlink:href="#g" x="350" y="350"/></pattern><rect width="100%" height="100%" fill="url(#h)"/></g><g fi:class="KUsePattern"><pattern id="j" width="350" height="350" patternUnits="userSpaceOnUse"><use xlink:href="#i" x="-350" y="-350"/><use xlink:href="#i" y="-350"/><use xlink:href="#i" x="350" y="-350"/><use xlink:href="#i" x="-350"/><use xlink:href="#i"/><use xlink:href="#i" x="350"/><use xlink:href="#i" x="-350" y="350"/><use xlink:href="#i" y="350"/><use xlink:href="#i" x="350" y="350"/></pattern><rect width="100%" height="100%" fill="url(#j)"/></g><g fi:class="KUsePattern"><pattern id="l" width="350" height="350" patternUnits="userSpaceOnUse"><use xlink:href="#k" x="-350" y="-350"/><use xlink:href="#k" y="-350"/><use xlink:href="#k" x="350" y="-350"/><use xlink:href="#k" x="-350"/><use xlink:href="#k"/><use xlink:href="#k" x="350"/><use xlink:href="#k" x="-350" y="350"/><use xlink:href="#k" y="350"/><use xlink:href="#k" x="350" y="350"/></pattern><rect width="100%" height="100%" fill="url(#l)"/></g><g fi:class="KUsePattern"><pattern id="n" width="350" height="350" patternUnits="userSpaceOnUse"><use xlink:href="#m" x="-350" y="-350"/><use xlink:href="#m" y="-350"/><use xlink:href="#m" x="350" y="-350"/><use xlink:href="#m" x="-350"/><use xlink:href="#m"/><use xlink:href="#m" x="350"/><use xlink:href="#m" x="-350" y="350"/><use xlink:href="#m" y="350"/><use xlink:href="#m" x="350" y="350"/></pattern><rect width="100%" height="100%" fill="url(#n)"/></g><g fi:class="KUsePattern"><pattern id="p" width="350" height="350" patternUnits="userSpaceOnUse"><use xlink:href="#o" x="-350" y="-350"/><use xlink:href="#o" y="-350"/><use xlink:href="#o" x="350" y="-350"/><use xlink:href="#o" x="-350"/><use xlink:href="#o"/><use xlink:href="#o" x="350"/><use xlink:href="#o" x="-350" y="350"/><use xlink:href="#o" y="350"/><use xlink:href="#o" x="350" y="350"/></pattern><rect width="100%" height="100%" fill="url(#p)"/></g></svg>