<svg id="Capa_1" xmlns="http://www.w3.org/2000/svg" viewBox="0 0 97.8 97.8"><style>.st0{fill:#fff}</style><ellipse class="st0" cx="48.9" cy="48.7" rx="14.5" ry="14"/><path class="st0" d="M71.3 49.5c0 12-10 21.7-22.4 21.7s-22.4-9.7-22.4-21.7c0-2.1.3-4.2.9-6.2h-6.6v30.4c0 1.6 1.3 2.9 2.9 2.9h50.2c1.6 0 2.9-1.3 2.9-2.9V43.3h-6.3c.5 2 .8 4.1.8 6.2zm-6-14.4h8.1c1.8 0 3.2-1.5 3.2-3.2v-7.8c0-1.8-1.5-3.2-3.2-3.2h-8.1c-1.8 0-3.2 1.5-3.2 3.2v7.8c0 1.8 1.4 3.2 3.2 3.2z"/><path class="st0" d="M48.9 0C21.9 0 0 21.9 0 48.9s21.9 48.9 48.9 48.9 48.9-21.9 48.9-48.9S75.9 0 48.9 0zm26.7 84.9H22.1c-5.1 0-9.2-3.8-9.2-9.2V22.1c0-5.5 4.2-9.2 9.2-9.2h53.5c5.1 0 9.2 3.8 9.2 9.2v53.5c.1 5.5-4.1 9.3-9.2 9.3z"/></svg>