<?xml version="1.0" encoding="utf-8"?>
<!-- Generator: Adobe Illustrator 22.0.1, SVG Export Plug-In . SVG Version: 6.00 Build 0)  -->
<svg version="1.1" id="vert" xmlns="http://www.w3.org/2000/svg" xmlns:xlink="http://www.w3.org/1999/xlink" x="0px" y="0px"
	 viewBox="0 0 795.3 418.1" style="enable-background:new 0 0 795.3 418.1;" xml:space="preserve">
<style type="text/css">
	.st0{fill:#FFFFFF;}
</style>
<g id="logo_mono">
	<g id="text_копия_3">
		<g id="viktor_Uksusoff_копия_3">
			<path id="v_3_" class="st0" d="M0.8,311.8l14.9-4.7c0,0,13.9,41.2,14.1,40.9c0.2-0.3,14.9-40.9,14.9-40.9l14.3,4.8l-21.7,59.3
				H22.2L0.8,311.8z"/>
			<polygon id="i_3_" class="st0" points="66.1,311.6 80.7,311.6 80.9,371.3 66.1,371.3 			"/>
			<path id="с_3_" class="st0" d="M125.3,329.4c0.2-0.3,10.8-9.8,10.8-9.8c-11.9-11.2-21.5-9.3-21.5-9.3
				c-23.8,2.1-25.8,23.1-25.8,23.1v16.8c3.4,22.6,25.9,22.6,25.9,22.6c16.3,0,20.9-8.3,20.9-8.3l-10.1-10.3c0,0-2.6,4.8-10,4.8
				c-7.4-0.1-10.9-5.1-10.9-5.1c-0.6-1.2-0.6-4.8-0.6-4.8l0.2-15.9c1-8.9,11-9.1,11-9.1C122.8,325.2,125.3,329.4,125.3,329.4z"/>
			<polygon id="t_3_" class="st0" points="144,311.3 190.9,311.3 190.9,325.1 174.9,325.1 175,371.4 160.1,371.4 159.8,325.4 
				144,325.4 			"/>
			<path id="o_7_" class="st0" d="M248.3,330c-5.2-19.9-26.3-19.8-26.3-19.8c-22.3,1.1-26,20.1-26,20.1v22
				c4.1,21.9,26.4,20.3,26.4,20.3c25.2,0.6,26.3-24,26.3-24L248.3,330z M233.4,350.4c0,0-2.3,9.3-11.4,9.3c-9,0-11.4-9.3-11.4-9.3
				v-17.3c0,0,2.8-8.8,11.4-8.8c8.5,0,11.4,8.8,11.4,8.8V350.4z"/>
			<path id="r_3_" class="st0" d="M292.6,349.1c0,0,11.7-4.8,12.8-17.3c0,0,0.1-17.9-17.1-20.3h-31.5v59.9h15.3l-0.3-19.8l4.7-0.2
				l12.8,20h17.8L292.6,349.1z M285.5,338.1h-13.7v-12.7l13.7-0.5c0,0,4.8,0.8,4.8,5.9C290.3,336,285.5,338.1,285.5,338.1z"/>
			<path id="U_3_" class="st0" d="M349,308l14.8,5v37.2c0,0,2.4,9.4,11.7,9.4s11.7-9.4,11.7-9.4v-37.3l15.2-4.9v43.5
				c0,0-4.8,21.9-26.1,21.9c-23.8,0-27.3-22.8-27.3-22.8V308z"/>
			<polygon id="k_3_" class="st0" points="411.9,311.4 427.1,311.4 427.1,334.5 447,311.4 464,311.4 440.4,340.1 464.7,371.2 
				445.7,371.2 427.2,346.3 426.9,371.2 411.9,371.2 			"/>
			<path id="s_7_" class="st0" d="M509,326.7l4.4-11.2c-8.7-5-22.3-5.1-22.3-5.1c-21.6,0-22.6,15.6-22.6,15.6
				c-0.4,16.9,24.6,22.7,24.6,22.7c8.5,4.5,6.8,6.9,6.8,6.9c-1.2,5.3-8.4,3.7-8.4,3.7c-10.7-0.2-20.9-4.7-20.9-4.7l0.2,14
				c9.8,4.6,20.6,4,20.6,4c25.5,1.3,24.3-16.9,24.3-16.9c0-12.8-14.9-18.6-14.9-18.6c-18.4-5.8-16-10.4-16-10.4
				c0.9-4.7,7.7-3.3,7.7-3.3C500.2,324.2,509,326.7,509,326.7z"/>
			<path id="u_3_" class="st0" d="M524,311.5h14.9l0,39c0,0,2.2,8.7,11.6,8.7s11.2-9.3,11.2-9.3l0.2-38.3h14.9l0.3,37.5
				c0,0-0.5,10-8.7,17.2s-18.5,6.6-18.5,6.6s-9.8,0-16.7-5.2c-6.8-5.2-9.4-15.4-9.4-15.4L524,311.5z"/>
			<path id="s_6_" class="st0" d="M626.2,326.7l4.4-11.2c-8.7-5-22.3-5.1-22.3-5.1c-21.6,0-22.6,15.6-22.6,15.6
				c-0.4,16.9,24.6,22.7,24.6,22.7c8.5,4.5,6.8,6.9,6.8,6.9c-1.2,5.3-8.4,3.7-8.4,3.7c-10.7-0.2-20.9-4.7-20.9-4.7l0.2,14
				c9.8,4.6,20.6,4,20.6,4c25.5,1.3,24.3-16.9,24.3-16.9c0-12.8-14.9-18.6-14.9-18.6c-18.4-5.8-16-10.4-16-10.4
				c0.9-4.7,7.7-3.3,7.7-3.3C617.4,324.2,626.2,326.7,626.2,326.7z"/>
			<path id="o_6_" class="st0" d="M692.2,330.3c0,0-4.1-21.4-26-20.3c-21.9,1.2-26.3,20.3-26.3,20.3v21.8c0,0,3.3,21.1,26.3,20.7
				s26.3-21,26.3-21L692.2,330.3z M666.1,359.4c-9.2,0-11.4-9.9-11.4-9.9v-16.4c0,0,1.6-8.9,11.4-8.9c9.8,0,11.1,8.9,11.1,8.9
				l0.3,16.4C677.5,349.5,675.2,359.4,666.1,359.4z"/>
			<polygon id="f_7_" class="st0" points="700.9,311.3 744.9,311.3 740.2,325.3 716,325.3 715.9,335.6 737.2,335.5 732.8,348.5 
				715.8,348.5 715.9,371.4 700.9,371.4 			"/>
			<polygon id="f_6_" class="st0" points="750.4,311.3 794.4,311.3 789.7,325.3 765.5,325.3 765.4,335.6 786.7,335.5 782.3,348.5 
				765.3,348.5 765.4,371.4 750.4,371.4 			"/>
		</g>
		<g id="EDUCATION_копия_3">
			<path class="st0" d="M116.6,403.4v3.5h-11.8v6.6h13.5v3.5h-17.7v-23.1h17.3v3.5h-13.1v6H116.6z"/>
			<path class="st0" d="M146.6,393.8c9.5,0,11.2,6.5,11.2,11.5c0,10.5-7.3,11.6-12,11.6h-8.4v-23.1H146.6z M141.6,413.5h3.9
				c2,0,7.7-0.3,7.7-8.1c0-7.1-4.5-8.1-7-8.1h-4.6V413.5z"/>
			<path class="st0" d="M181.6,393.8v13.6c0,4.6,1.4,6.7,5.3,6.7c4,0,5.3-2.1,5.3-6.7v-13.6h4.2v14.2c0,3.7-0.7,9.6-9.5,9.6
				c-8.9,0-9.5-5.8-9.5-9.6v-14.2H181.6z"/>
			<path class="st0" d="M237.5,409.1c-0.3,3.5-2.2,8.6-10,8.6c-1.8,0-11.5-0.2-11.5-11.8c0-9.5,5.5-12.6,11.2-12.6
				c7.9,0,9.7,4.9,9.9,8.2H233c-0.3-1.9-1.4-4.7-5.7-4.7c-5.1,0-6.7,4.2-6.7,9c0,5.4,3,8.5,7.1,8.5c3.8,0,5.5-2.6,5.6-5.1H237.5z"/>
			<path class="st0" d="M258.9,417h-4.5l8.7-23.1h4.2L276,417h-4.5l-1.7-4.9h-9.2L258.9,417z M268.7,408.6l-3.5-10.3l-3.5,10.3
				H268.7z"/>
			<path class="st0" d="M289.4,397.3v-3.5h18.7v3.5h-7.3V417h-4.2v-19.6H289.4z"/>
			<path class="st0" d="M331.3,393.8V417h-4.2v-23.1H331.3z"/>
			<path class="st0" d="M362.7,393.2c2,0,11.3,0.3,11.3,12.2s-9.3,12.2-11.3,12.2c-2,0-11.3-0.3-11.3-12.2S360.7,393.2,362.7,393.2z
				 M362.7,414.1c5.7,0,6.8-5.2,6.8-8.7s-1.1-8.7-6.8-8.7s-6.8,5.2-6.8,8.7S357,414.1,362.7,414.1z"/>
			<path class="st0" d="M398.2,417H394v-23.1h4.5l11.1,16.4v-16.4h4.2V417h-4.5l-11.1-16.4V417z"/>
			<path class="st0" d="M462.8,398.7L462.8,398.7v0.9V417h-4.2v-23.1h6.3l6.3,17.5l6.3-17.5h6.3V417h-4.2v-17.4l0.1-0.9h-0.1
				l-6.8,18.3h-3.2L462.8,398.7z"/>
			<path class="st0" d="M515.2,393.2c2,0,11.3,0.3,11.3,12.2s-9.3,12.2-11.3,12.2c-2,0-11.3-0.3-11.3-12.2S513.2,393.2,515.2,393.2z
				 M515.2,414.1c5.7,0,6.8-5.2,6.8-8.7s-1.1-8.7-6.8-8.7c-5.7,0-6.8,5.2-6.8,8.7S509.5,414.1,515.2,414.1z"/>
			<path class="st0" d="M549.4,409.5c0.1,1.7,1.2,4.6,6,4.6c1.6,0,4.9-0.2,4.9-3.5c0-2.8-2.7-3.3-4.2-3.6c-0.9-0.2-1.8-0.4-2.7-0.6
				c-3.8-0.9-7.2-2-7.2-6.7c0-6.5,7.2-6.7,9.1-6.7c6.1,0,8.6,3.3,8.9,6.8h-4.2c-0.4-3.2-3.6-3.3-4.9-3.3c-0.6,0-4.5,0-4.5,3.1
				c0,2.4,2.6,2.8,5.1,3.3c5.3,1,8.9,2.1,8.9,7.3c0,6.5-5.8,7.4-9.7,7.4c-7.9,0-9.8-4.5-9.9-8.1H549.4z"/>
			<path class="st0" d="M605,409.1c-0.3,3.5-2.2,8.6-10,8.6c-1.8,0-11.5-0.2-11.5-11.8c0-9.5,5.5-12.6,11.2-12.6
				c7.9,0,9.7,4.9,9.9,8.2h-4.2c-0.3-1.9-1.4-4.7-5.7-4.7c-5.1,0-6.7,4.2-6.7,9c0,5.4,3,8.5,7.1,8.5c3.8,0,5.5-2.6,5.6-5.1H605z"/>
			<path class="st0" d="M634.8,393.2c2,0,11.3,0.3,11.3,12.2s-9.3,12.2-11.3,12.2c-2,0-11.3-0.3-11.3-12.2S632.7,393.2,634.8,393.2z
				 M634.8,414.1c5.7,0,6.8-5.2,6.8-8.7s-1.1-8.7-6.8-8.7s-6.8,5.2-6.8,8.7S629,414.1,634.8,414.1z"/>
			<path class="st0" d="M674.8,417h-5.3l-6.3-23.1h4.8l4.5,18.2l4.1-18.2h4.8l4.1,18.2l4.5-18.2h4.8l-6.3,23.1H683l-4.1-18.1
				L674.8,417z"/>
		</g>
	</g>
	<path class="st0" d="M396.7,1.3c-97.3,0-160.7,61-160.7,136.3s61.5,136.3,160.7,136.3c101.8,0,160.6-61,160.8-136.3
		C557.6,62.3,494.5,1.3,396.7,1.3z M497.2,163.5c0,0-4.5,47.9-55.8,47.9c-46.3,0-55.8-41.5-55.8-41.5L371,210.1l-37.6,0.1l-45.9-127
		l32.1-10l32.3,92.6l32.8-92.6l32.3,9.8v77.5c0,0,3.8,20.6,24.4,20.6s23.4-20.6,23.4-20.6V82.7l32.6-9.5V163.5z"/>
</g>
</svg>
