<?xml version="1.0" encoding="utf-8"?>
<!-- Generator: Adobe Illustrator 22.0.1, SVG Export Plug-In . SVG Version: 6.00 Build 0)  -->
<svg version="1.1" id="vert" xmlns="http://www.w3.org/2000/svg" xmlns:xlink="http://www.w3.org/1999/xlink" x="0px" y="0px"
	 viewBox="0 0 327.1 276.4" style="enable-background:new 0 0 327.1 276.4;" xml:space="preserve">
<style type="text/css">
	.st0{fill:#FFFFFF;}
</style>
<g id="logo_mono">
	<path class="st0" d="M163.3,2.5C66.1,2.5,2.6,63.5,2.6,138.7S64.1,275,163.3,275c101.8,0,160.6-61,160.8-136.2
		C324.3,63.5,261.1,2.5,163.3,2.5z M263.8,164.6c0,0-4.5,47.9-55.8,47.9c-46.3,0-55.8-41.5-55.8-41.5l-14.6,40.3l-37.6,0.1
		l-45.9-127l32.1-10l32.3,92.6l32.8-92.6l32.3,9.8v77.5c0,0,3.8,20.6,24.4,20.6s23.4-20.6,23.4-20.6V83.8l32.6-9.5V164.6z"/>
</g>
</svg>
