<?xml version="1.0" encoding="utf-8"?>
<!-- Generator: Adobe Illustrator 22.0.1, SVG Export Plug-In . SVG Version: 6.00 Build 0)  -->
<svg version="1.1" xmlns="http://www.w3.org/2000/svg" xmlns:xlink="http://www.w3.org/1999/xlink" x="0px" y="0px"
	 viewBox="0 0 1138.4 277.5" style="enable-background:new 0 0 1138.4 277.5;" xml:space="preserve">
<style type="text/css">
	.st0{fill:#FFFFFF;}
</style>
<g id="bg">
</g>
<g id="horizontal">
	<g id="logo_mono__x28_копия_x29_">
		<path class="st0" d="M164.3,3C67.1,3,3.6,64,3.6,139.3s61.5,136.3,160.8,136.3c101.8,0,160.6-61,160.8-136.3
			C325.3,64,262.1,3,164.3,3z M264.8,165.1c0,0-4.5,47.9-55.8,47.9c-46.3,0-55.8-41.5-55.8-41.5l-14.6,40.3l-37.6,0.1l-45.9-127
			l32.1-10l32.3,92.6l32.8-92.6l32.3,9.8v77.5c0,0,3.8,20.6,24.4,20.6s23.4-20.6,23.4-20.6V84.4l32.6-9.5V165.1z"/>
		<g id="text_копия_2">
			<g id="viktor_Uksusoff_копия_2">
				<path id="v_2_" class="st0" d="M340.7,88.7l14.9-4.7c0,0,13.9,41.2,14.1,40.9S384.6,84,384.6,84l14.3,4.8l-21.7,59.3h-15.2
					L340.7,88.7z"/>
				<polygon id="i_2_" class="st0" points="405.9,88.4 420.6,88.4 420.8,148.2 405.9,148.2 				"/>
				<path id="с_2_" class="st0" d="M465.2,106.3c0.2-0.3,10.8-9.8,10.8-9.8c-11.9-11.2-21.5-9.3-21.5-9.3
					c-23.8,2.1-25.8,23.1-25.8,23.1V127c3.4,22.6,25.9,22.6,25.9,22.6c16.3,0,20.9-8.3,20.9-8.3l-10.1-10.3c0,0-2.6,4.8-10,4.8
					c-7.4-0.1-10.9-5.1-10.9-5.1c-0.6-1.2-0.6-4.8-0.6-4.8l0.2-15.9c1-8.9,11-9.1,11-9.1C462.7,102,465.2,106.3,465.2,106.3z"/>
				<polygon id="t_2_" class="st0" points="483.9,88.2 530.8,88.2 530.8,102 514.8,102 514.9,148.3 499.9,148.3 499.7,102.3 
					483.9,102.3 				"/>
				<path id="o_5_" class="st0" d="M588.2,106.8c-5.2-19.9-26.3-19.8-26.3-19.8c-22.3,1.1-26,20.1-26,20.1v22
					c4.1,21.9,26.4,20.3,26.4,20.3c25.2,0.6,26.3-24,26.3-24L588.2,106.8z M573.3,127.3c0,0-2.3,9.2-11.4,9.2
					c-9,0-11.4-9.2-11.4-9.2V110c0,0,2.8-8.8,11.4-8.8c8.5,0,11.4,8.8,11.4,8.8V127.3z"/>
				<path id="r_2_" class="st0" d="M632.4,125.9c0,0,11.7-4.8,12.8-17.3c0,0,0.1-17.9-17.1-20.3h-31.5v59.9h15.3l-0.3-19.8l4.7-0.2
					l12.8,20H647L632.4,125.9z M625.4,115h-13.7v-12.7l13.7-0.5c0,0,4.8,0.8,4.8,5.9C630.2,112.8,625.4,115,625.4,115z"/>
				<path id="U_2_" class="st0" d="M688.9,84.8l14.8,5V127c0,0,2.4,9.4,11.7,9.4S727,127,727,127V89.8l15.2-4.9v43.5
					c0,0-4.8,21.9-26.1,21.9c-23.8,0-27.3-22.8-27.3-22.8V84.8z"/>
				<polygon id="k_2_" class="st0" points="751.8,88.3 766.9,88.3 766.9,111.3 786.9,88.3 803.9,88.3 780.3,116.9 804.6,148.1 
					785.6,148.1 767,123.2 766.8,148.1 751.8,148.1 				"/>
				<path id="s_5_" class="st0" d="M848.9,103.6l4.4-11.2c-8.7-5-22.3-5.1-22.3-5.1c-21.6,0-22.6,15.6-22.6,15.6
					c-0.4,16.9,24.6,22.7,24.6,22.7c8.5,4.5,6.8,6.9,6.8,6.9c-1.2,5.3-8.4,3.7-8.4,3.7c-10.7-0.2-20.9-4.7-20.9-4.7l0.2,14
					c9.8,4.6,20.6,4,20.6,4c25.5,1.3,24.3-16.9,24.3-16.9c0-12.8-14.9-18.6-14.9-18.6c-18.4-5.8-16-10.4-16-10.4
					c0.9-4.7,7.7-3.3,7.7-3.3C840,101.1,848.9,103.6,848.9,103.6z"/>
				<path id="u_2_" class="st0" d="M863.8,88.3h14.9l0,39c0,0,2.2,8.7,11.6,8.7c9.3,0,11.2-9.3,11.2-9.3l0.2-38.3h14.9l0.3,37.5
					c0,0-0.5,10-8.7,17.2c-8.2,7.2-18.5,6.6-18.5,6.6s-9.8,0-16.7-5.2c-6.8-5.2-9.4-15.4-9.4-15.4L863.8,88.3z"/>
				<path id="s_4_" class="st0" d="M966.1,103.6l4.4-11.2c-8.7-5-22.3-5.1-22.3-5.1c-21.6,0-22.6,15.6-22.6,15.6
					c-0.4,16.9,24.6,22.7,24.6,22.7c8.5,4.5,6.8,6.9,6.8,6.9c-1.2,5.3-8.4,3.7-8.4,3.7c-10.7-0.2-20.9-4.7-20.9-4.7l0.2,14
					c9.8,4.6,20.6,4,20.6,4c25.5,1.3,24.3-16.9,24.3-16.9C973,119.8,958,114,958,114c-18.4-5.8-16-10.4-16-10.4
					c0.9-4.7,7.7-3.3,7.7-3.3C957.3,101.1,966.1,103.6,966.1,103.6z"/>
				<path id="o_4_" class="st0" d="M1032.1,107.2c0,0-4.1-21.4-26-20.3c-21.9,1.2-26.3,20.3-26.3,20.3v21.7c0,0,3.3,21.1,26.3,20.7
					c23-0.5,26.3-21,26.3-21L1032.1,107.2z M1005.9,136.3c-9.2,0-11.4-9.9-11.4-9.9v-16.4c0,0,1.6-8.9,11.4-8.9
					c9.8,0,11.1,8.9,11.1,8.9l0.3,16.4C1017.4,126.3,1015.1,136.3,1005.9,136.3z"/>
				<polygon id="f_5_" class="st0" points="1040.8,88.2 1084.8,88.2 1080.1,102.2 1055.9,102.2 1055.7,112.5 1077.1,112.3 
					1072.7,125.4 1055.7,125.4 1055.7,148.3 1040.8,148.3 				"/>
				<polygon id="f_4_" class="st0" points="1090.3,88.2 1134.3,88.2 1129.6,102.2 1105.4,102.2 1105.2,112.5 1126.6,112.3 
					1122.2,125.4 1105.2,125.4 1105.2,148.3 1090.3,148.3 				"/>
			</g>
			<g id="EDUCATION_копия_2">
				<path class="st0" d="M456.7,180.2v3.5h-11.8v6.6h13.5v3.5h-17.7v-23.1H458v3.5h-13.1v6H456.7z"/>
				<path class="st0" d="M486.7,170.7c9.5,0,11.2,6.5,11.2,11.5c0,10.5-7.3,11.6-12,11.6h-8.4v-23.1H486.7z M481.7,190.3h3.9
					c2,0,7.7-0.3,7.7-8.1c0-7.1-4.5-8.1-7-8.1h-4.6V190.3z"/>
				<path class="st0" d="M521.7,170.7v13.6c0,4.6,1.4,6.7,5.3,6.7c4,0,5.3-2.1,5.3-6.7v-13.6h4.2v14.2c0,3.7-0.7,9.6-9.5,9.6
					c-8.9,0-9.5-5.8-9.5-9.6v-14.2H521.7z"/>
				<path class="st0" d="M577.6,185.9c-0.3,3.5-2.2,8.6-10,8.6c-1.8,0-11.5-0.2-11.5-11.8c0-9.5,5.5-12.6,11.2-12.6
					c7.9,0,9.7,4.9,9.9,8.2H573c-0.3-1.9-1.4-4.7-5.7-4.7c-5.1,0-6.7,4.2-6.7,9c0,5.4,3,8.5,7.1,8.5c3.8,0,5.5-2.6,5.6-5.1H577.6z"
					/>
				<path class="st0" d="M598.9,193.8h-4.5l8.7-23.1h4.2l8.7,23.1h-4.5l-1.7-4.9h-9.2L598.9,193.8z M608.7,185.5l-3.5-10.3
					l-3.5,10.3H608.7z"/>
				<path class="st0" d="M629.5,174.2v-3.5h18.7v3.5H641v19.6h-4.2v-19.6H629.5z"/>
				<path class="st0" d="M671.4,170.7v23.1h-4.2v-23.1H671.4z"/>
				<path class="st0" d="M702.8,170c2,0,11.3,0.3,11.3,12.2s-9.3,12.2-11.3,12.2c-2,0-11.3-0.3-11.3-12.2S700.8,170,702.8,170z
					 M702.8,191c5.7,0,6.8-5.2,6.8-8.7s-1.1-8.7-6.8-8.7s-6.8,5.2-6.8,8.7S697.1,191,702.8,191z"/>
				<path class="st0" d="M738.3,193.8h-4.2v-23.1h4.5l11.1,16.4v-16.4h4.2v23.1h-4.5l-11.1-16.4V193.8z"/>
				<path class="st0" d="M802.9,175.5L802.9,175.5v0.9v17.4h-4.2v-23.1h6.3l6.3,17.5l6.3-17.5h6.3v23.1h-4.2v-17.4l0.1-0.9h-0.1
					l-6.8,18.3h-3.2L802.9,175.5z"/>
				<path class="st0" d="M855.3,170c2,0,11.3,0.3,11.3,12.2s-9.3,12.2-11.3,12.2c-2,0-11.3-0.3-11.3-12.2S853.2,170,855.3,170z
					 M855.3,191c5.7,0,6.8-5.2,6.8-8.7s-1.1-8.7-6.8-8.7s-6.8,5.2-6.8,8.7S849.5,191,855.3,191z"/>
				<path class="st0" d="M889.5,186.4c0.1,1.7,1.2,4.6,6,4.6c1.6,0,4.9-0.2,4.9-3.5c0-2.8-2.7-3.3-4.2-3.6c-0.9-0.2-1.8-0.4-2.7-0.6
					c-3.8-0.9-7.2-2-7.2-6.7c0-6.5,7.2-6.7,9.1-6.7c6.1,0,8.6,3.3,8.9,6.8h-4.2c-0.4-3.2-3.6-3.3-4.9-3.3c-0.6,0-4.5,0-4.5,3.1
					c0,2.4,2.6,2.8,5.1,3.3c5.3,1,8.9,2.1,8.9,7.3c0,6.5-5.8,7.4-9.7,7.4c-7.9,0-9.8-4.5-9.9-8.1H889.5z"/>
				<path class="st0" d="M945,185.9c-0.3,3.5-2.2,8.6-10,8.6c-1.8,0-11.5-0.2-11.5-11.8c0-9.5,5.5-12.6,11.2-12.6
					c7.9,0,9.7,4.9,9.9,8.2h-4.2c-0.3-1.9-1.4-4.7-5.7-4.7c-5.1,0-6.7,4.2-6.7,9c0,5.4,3,8.5,7.1,8.5c3.8,0,5.5-2.6,5.6-5.1H945z"/>
				<path class="st0" d="M974.8,170c2,0,11.3,0.3,11.3,12.2s-9.3,12.2-11.3,12.2c-2,0-11.3-0.3-11.3-12.2S972.8,170,974.8,170z
					 M974.8,191c5.7,0,6.8-5.2,6.8-8.7s-1.1-8.7-6.8-8.7s-6.8,5.2-6.8,8.7S969.1,191,974.8,191z"/>
				<path class="st0" d="M1014.9,193.8h-5.3l-6.3-23.1h4.8l4.5,18.2l4.1-18.2h4.8l4.1,18.2l4.5-18.2h4.8l-6.3,23.1h-5.3l-4.1-18.1
					L1014.9,193.8z"/>
			</g>
		</g>
	</g>
</g>
</svg>
