<?xml version="1.0" encoding="utf-8"?>
<!-- Generator: Adobe Illustrator 22.0.1, SVG Export Plug-In . SVG Version: 6.00 Build 0)  -->
<svg version="1.1" id="Capa_1" xmlns="http://www.w3.org/2000/svg" xmlns:xlink="http://www.w3.org/1999/xlink" x="0px" y="0px"
	 viewBox="0 0 441.6 512" style="enable-background:new 0 0 441.6 512;" xml:space="preserve">
<style type="text/css">
	.st0{fill:#333B44;}
</style>
<g>
	<g>
		<path class="st0" d="M443,463.3l-27.3-329.5c-0.6-7.8-7.1-13.8-14.9-13.8h-75v-15c0-57.9-47.1-105-105-105s-105,47.1-105,105v15
			h-75c-7.8,0-14.3,6-14.9,13.8L-1.4,463.3C-3.6,489.5,17.1,512,43.4,512h354.8C424.5,512,445.2,489.5,443,463.3z M145.8,105
			c0-41.4,33.6-75,75-75s75,33.6,75,75v15h-150V105z M398.2,482H43.4c-8.8,0-15.7-7.5-14.9-16.3L54.6,150H387l26.2,315.8
			C413.9,474.5,407,482,398.2,482z"/>
	</g>
</g>
<g>
	<g>
		<path class="st0" d="M340.8,240h-47.6c1.7-4.8,2.6-9.8,2.6-15c0-24.9-20.1-45-45-45c-11.2,0-21.7,4.1-30,11.5
			c-8.3-7.4-18.8-11.5-30-11.5c-24.9,0-45,20.1-45,45c0,5.2,0.9,10.2,2.6,15h-47.6c-8.3,0-15,6.7-15,15v60c0,8.3,6.7,15,15,15h15
			v107c0,8.3,6.7,15,15,15h180c8.3,0,15-6.7,15-15V330h15c8.3,0,15-6.7,15-15v-60C355.8,246.7,349.1,240,340.8,240z M205.8,422h-60
			v-92h60V422z M205.8,300c-11.4,0-77,0-90,0v-30h90V300z M205.8,240h-15c-8.3,0-15-6.7-15-15c0-8.3,6.7-15,15-15
			c8.3,0,15,6.7,15,15V240z M235.8,225c0-8.3,6.7-15,15-15c8.3,0,15,6.7,15,15c0,8.3-6.7,15-15,15h-15V225z M295.8,422h-60v-92h60
			V422z M325.8,300c-9.4,0-79.8,0-90,0v-30h90V300z"/>
	</g>
</g>
</svg>
