<?xml version="1.0" encoding="utf-8"?>
<!-- Generator: Adobe Illustrator 22.0.1, SVG Export Plug-In . SVG Version: 6.00 Build 0)  -->
<svg version="1.1" id="Capa_1" xmlns="http://www.w3.org/2000/svg" xmlns:xlink="http://www.w3.org/1999/xlink" x="0px" y="0px"
	 viewBox="0 0 512 512" style="enable-background:new 0 0 512 512;" xml:space="preserve">
<style type="text/css">
	.st0{fill:#333B44;}
</style>
<g>
	<g>
		<path class="st0" d="M472.4,104.2c-13.5,0-24.5-11-24.5-24.5c0-4.2-3.4-7.5-7.5-7.5s-7.5,3.4-7.5,7.5c0,13.5-11,24.5-24.5,24.5
			c-4.1,0-7.5,3.4-7.5,7.5s3.4,7.5,7.5,7.5c13.5,0,24.5,11,24.5,24.5c0,4.2,3.4,7.5,7.5,7.5s7.5-3.4,7.5-7.5
			c0-13.5,11-24.5,24.5-24.5c4.2,0,7.5-3.4,7.5-7.5C479.9,107.6,476.6,104.2,472.4,104.2z M440.4,120.6c-2.5-3.4-5.5-6.4-8.9-8.9
			c3.4-2.5,6.4-5.5,8.9-8.9c2.5,3.4,5.5,6.4,8.9,8.9C445.8,114.2,442.8,117.2,440.4,120.6z"/>
	</g>
</g>
<g>
	<g>
		<path class="st0" d="M440.4,360.7c-13.5,0-24.5-11-24.5-24.5c0-4.2-3.4-7.5-7.5-7.5s-7.5,3.4-7.5,7.5c0,13.5-11,24.5-24.5,24.5
			c-4.2,0-7.5,3.4-7.5,7.5s3.4,7.5,7.5,7.5c13.5,0,24.5,11,24.5,24.5c0,4.2,3.4,7.5,7.5,7.5s7.5-3.4,7.5-7.5
			c0-13.5,11-24.5,24.5-24.5c4.2,0,7.5-3.4,7.5-7.5S444.5,360.7,440.4,360.7z M408.3,377.1c-2.5-3.4-5.5-6.4-8.9-8.9
			c3.4-2.5,6.4-5.5,8.9-8.9c2.5,3.4,5.5,6.4,8.9,8.9C413.8,370.7,410.8,373.7,408.3,377.1z"/>
	</g>
</g>
<g>
	<g>
		<path class="st0" d="M135.8,296.6c-13.5,0-24.5-11-24.5-24.5c0-4.2-3.4-7.5-7.5-7.5s-7.5,3.4-7.5,7.5c0,13.5-11,24.5-24.5,24.5
			c-4.2,0-7.5,3.4-7.5,7.5s3.4,7.5,7.5,7.5c13.5,0,24.5,11,24.5,24.5c0,4.2,3.4,7.5,7.5,7.5s7.5-3.4,7.5-7.5
			c0-13.5,11-24.5,24.5-24.5c4.1,0,7.5-3.4,7.5-7.5C143.3,299.9,139.9,296.6,135.8,296.6z M103.7,313c-2.5-3.4-5.5-6.4-8.9-8.9
			c3.4-2.5,6.4-5.5,8.9-8.9c2.5,3.4,5.5,6.4,8.9,8.9C109.2,306.6,106.2,309.6,103.7,313z"/>
	</g>
</g>
<g>
	<g>
		<path class="st0" d="M127.8,48.1c-18,0-32.6-14.6-32.6-32.6c0-4.2-3.4-7.5-7.5-7.5s-7.5,3.4-7.5,7.5c0,18-14.6,32.6-32.6,32.6
			c-4.2,0-7.5,3.4-7.5,7.5c0,4.2,3.4,7.5,7.5,7.5c18,0,32.6,14.6,32.6,32.6c0,4.2,3.4,7.5,7.5,7.5c4.2,0,7.5-3.4,7.5-7.5
			c0-18,14.6-32.6,32.6-32.6c4.1,0,7.5-3.4,7.5-7.5C135.3,51.5,131.9,48.1,127.8,48.1z M87.7,70C84,64.3,79,59.3,73.2,55.6
			C79,51.9,84,47,87.7,41.2c3.7,5.8,8.7,10.7,14.4,14.4C96.3,59.3,91.4,64.3,87.7,70z"/>
	</g>
</g>
<g>
	<g>
		<path class="st0" d="M151.3,127.8c0-2.4-1.2-4.7-3.1-6.1c-2-1.4-4.5-1.8-6.8-1l-72.1,24c-3.1,1-5.1,3.9-5.1,7.1v52.6
			c-4.8-2.5-10.5-4-16.5-4c-17.4,0-31.6,12-31.6,26.8s14.2,26.8,31.6,26.8s31.6-12,31.6-26.8c0-0.9-0.1-1.8-0.2-2.7
			c0.1-0.5,0.2-1,0.2-1.5v-65.7l57.1-19v35.7c-4.8-2.5-10.5-4-16.5-4c-17.4,0-31.6,12-31.6,26.8c0,14.8,14.2,26.8,31.6,26.8
			s31.6-12,31.6-26.8c0-0.4,0-0.8,0-1.1c0-0.2,0-0.4,0-0.7V127.8z M47.6,238.9c-9,0-16.5-5.4-16.5-11.7c0-6.4,7.6-11.7,16.5-11.7
			s16.5,5.4,16.5,11.7C64.1,233.5,56.6,238.9,47.6,238.9z M119.7,208.4c-9,0-16.5-5.4-16.5-11.7s7.6-11.7,16.5-11.7
			s16.5,5.4,16.5,11.7S128.7,208.4,119.7,208.4z"/>
	</g>
</g>
<g>
	<g>
		<path class="st0" d="M496,169.4c0-2.4-1.2-4.7-3.1-6.1c-2-1.4-4.5-1.8-6.8-1l-72.1,24c-3.1,1-5.1,3.9-5.1,7.1v52.6
			c-4.8-2.5-10.5-4-16.5-4c-17.4,0-31.6,12-31.6,26.8s14.2,26.8,31.6,26.8s31.6-12,31.6-26.8c0-0.3,0-0.5,0-0.8c0-0.1,0-0.3,0-0.4
			v-68.7l57.1-19v35.7c-4.8-2.5-10.5-4-16.5-4c-17.4,0-31.6,12-31.6,26.8s14.2,26.8,31.6,26.8s31.6-12,31.6-26.8
			c0-0.6,0-1.2-0.1-1.8c0-0.3,0.1-0.7,0.1-1L496,169.4L496,169.4z M392.3,280.5c-9,0-16.5-5.4-16.5-11.7c0-6.4,7.6-11.7,16.5-11.7
			s16.5,5.4,16.5,11.7S401.2,280.5,392.3,280.5z M464.4,250.1c-9,0-16.5-5.4-16.5-11.7s7.6-11.7,16.5-11.7s16.5,5.4,16.5,11.7
			S473.4,250.1,464.4,250.1z"/>
	</g>
</g>
<g>
	<g>
		<path class="st0" d="M389,0.6c-12.5-2.8-25,5-28,17.5l-22.1,65.8l-46.2,52.4h-64.1L208,95.1L229.4,31c2-6,1.5-12.4-1.3-18
			c-2.8-5.6-7.6-9.8-13.6-11.8c-6-2-12.3-1.5-18,1.3c-5.6,2.8-9.8,7.6-11.8,13.6l-23.2,69.2c-1.7,5.2-1.6,10.9,0.4,16
			c0.1,0.1,0.1,0.3,0.2,0.4l38.1,83.4l-7.7,68.9L153,341.1c-1,2.3-0.9,4.9,0.4,7c1.3,2,3.4,3.4,5.8,3.6l-6.2,13.4
			c-0.2,0.4-0.3,0.8-0.4,1.2l-31.1,116.3c0,0,0,0.1,0,0.1c-3.1,12.6,4.5,25.4,17.1,28.6c1.9,0.5,3.8,0.7,5.7,0.7
			c9.9,0,19.7-6.5,22.7-15.2l40-117.7l11.2-24.7l34.8,1.6c1.3,19.6,1.4,20.7,1.5,21.2c0.1,0.7,0.3,1.4,0.6,2.1l49.9,113.3
			c1.2,6.6,5.2,12.5,11,16c6.2,3.8,13.9,4.4,20.7,1.8c4-1.5,7.5-4.2,10.1-7.5c3.9-5,5.6-11.1,4.8-17.4c-0.1-0.5-0.2-1-0.3-1.5
			l-39.5-117.4c-0.1-1.3-0.4-4.2-0.7-8.1l25.1,1.1c5.1,0.2,9-4.8,7.5-9.7l-8.5-27.8c-1.2-4-5.4-6.2-9.4-5c-4,1.2-6.2,5.4-5,9.4
			l5.3,17.6l-154.6-7l19.3-42.4l115.7-14.5l5.1,15.7c1.2,4,5.4,6.2,9.4,5c4-1.2,6.2-5.4,5-9.4l-13.9-44.4l7.7-69.5l57.6-65.6
			c3-3,5.1-6.8,6.1-11l23.6-71.8c0.1-0.2,0.1-0.5,0.2-0.7C409.7,16,401.6,3.4,389,0.6z M295.6,357.9c0.6,6.9,1,11.1,1,11.1
			c0.1,0.6,0.2,1.1,0.4,1.7L336.5,488c0.1,2-0.5,4-1.8,5.6c-1.4,1.8-3.4,2.9-5.7,3.2c-0.4,0-0.7,0.1-1.1,0.1c-4.3,0-7.9-3.2-8.4-7.5
			c-0.1-0.7-0.3-1.4-0.6-2.1l-49.8-113.1c-0.1-1.7-0.5-6.3-1.2-17.7L295.6,357.9z M175.4,352.4l26.5,1.2l-8.9,19.5
			c-0.1,0.2-0.2,0.5-0.3,0.7l-40.1,118.1c-0.7,2.1-4.3,5.1-8.4,5.1c-0.7,0-1.4-0.1-2.1-0.3c-4.5-1.1-7.3-5.7-6.2-10.3l30.9-115.7
			L175.4,352.4z M237.8,151.3h42.7v19.4l-48.5,3.7L237.8,151.3z M175.9,95.7c-0.7-1.8-0.7-3.8-0.1-5.6L199,20.9
			c0.7-2.2,2.2-3.9,4.3-4.9c2-1,4.3-1.2,6.5-0.5c2.2,0.7,3.9,2.2,4.9,4.3c1,2,1.2,4.3,0.5,6.5l-22.4,67.1c-0.6,1.9-0.5,4,0.4,5.7
			l24,48.1c1,2.1,3,3.5,5.2,4l-5.7,22.9c-0.1,0.6-0.2,1.1-0.2,1.6l-3.9,0.3L175.9,95.7z M197.8,278.7l8.9-19.6
			c0.3-0.7,0.5-1.5,0.6-2.3l2.7-24.6l88.1,22l3.5,11.5L197.8,278.7z M297.6,238.6l-85.8-21.5l2.9-26.3l88.9-6.8L297.6,238.6z
			 M392.2,25.1l-23.5,71.7c-0.1,0.2-0.1,0.5-0.2,0.7c-0.4,1.6-1.1,3-2.3,4.2c-0.1,0.1-0.2,0.2-0.3,0.4l-58.5,66.6l-11.9,0.9v-18.3
			h0.5c2.2,0,4.3-1,5.7-2.6c1-1.2,32.7-37.1,49.4-56.1c0.7-0.8,1.2-1.6,1.5-2.6l22.7-67.6c0.1-0.2,0.2-0.5,0.2-0.8
			c0.5-2.2,1.8-4.1,3.7-5.3c1.9-1.2,4.2-1.6,6.4-1.1c2.2,0.5,4.1,1.8,5.3,3.7C392.2,20.8,392.6,23,392.2,25.1z"/>
	</g>
</g>
<g>
	<g>
		<path class="st0" d="M319.6,47.6c0-13-10.6-23.5-23.5-23.5c-10.7,0-19.8,7.2-22.6,17c-3.1-0.6-6.2-0.9-9.5-0.9
			c-26.2,0-47.6,21.3-47.6,47.6c0,26.2,21.4,47.6,47.6,47.6c26.2,0,47.6-21.3,47.6-47.6c0-6.9-1.5-13.5-4.2-19.5
			C314.8,64.1,319.6,56.3,319.6,47.6z M264,120.2c-15.4,0-28.3-10.7-31.7-25h63.4C292.3,109.5,279.4,120.2,264,120.2z M232.3,80.2
			c3.4-14.3,16.3-25,31.7-25s28.3,10.7,31.7,25H232.3z M299.1,55.6c-3.3-3.6-7.2-6.7-11.4-9.2c0.6-4.1,4.1-7.3,8.4-7.3
			c4.7,0,8.5,3.8,8.5,8.5C304.6,51.1,302.4,54.3,299.1,55.6z"/>
	</g>
</g>
</svg>
