<svg xmlns="http://www.w3.org/2000/svg" xmlns:xlink="http://www.w3.org/1999/xlink" xmlns:fi="http://pattern.flaticon.com/" x="0" y="0" width="700" height="350" viewBox="0 0 700 350"><rect x="0px" y="0px" width="100%" height="100%" opacity="0.03" fill="#ffffff"/><defs><g transform="matrix(0.06490928679704666 0 0 0.06490928679704666 162.38322257995605 164.3349391198808)" id="L1_0"><path d="M77.327,360.177c-21.89,0-39.698,17.808-39.698,39.698c0,21.89,17.808,39.698,39.698,39.698    c21.89,0,39.698-17.808,39.698-39.698C117.025,377.985,99.218,360.177,77.327,360.177z M77.327,420.964    c-11.629,0-21.089-9.461-21.089-21.089c0-11.629,9.46-21.089,21.089-21.089c11.629,0,21.089,9.46,21.089,21.089    C98.417,411.503,88.958,420.964,77.327,420.964z"/><path d="M381.919,360.177c-21.89,0-39.698,17.808-39.698,39.698c0,21.89,17.808,39.698,39.698,39.698    c21.89,0,39.698-17.808,39.698-39.698C421.617,377.985,403.809,360.177,381.919,360.177z M381.919,420.964    c-11.629,0-21.089-9.461-21.089-21.089c0-11.629,9.46-21.089,21.089-21.089c11.629,0,21.089,9.46,21.089,21.089    C403.009,411.503,393.548,420.964,381.919,420.964z"/><path d="M508.771,423.221c-3.892-3.353-9.767-2.918-13.123,0.974l-0.732,0.85c-11.815,13.702-29.956,19.128-46.842,14.849    c7.257-11.999,11.174-25.828,11.174-40.018c0-42.639-34.69-77.327-77.327-77.327c-26.436,0-49.807,13.342-63.758,33.638    l-81.235-78.211c-3.509-3.379-9.03-3.479-12.659-0.231l-16.471,14.743L35.211,53.825c-0.036-0.051-0.066-0.096-0.089-0.133    c0.069-0.081,0.165-0.162,0.254-0.22c0.034,0.029,0.074,0.065,0.119,0.109l270.927,264.91c3.676,3.591,9.566,3.522,13.157-0.154    c3.591-3.676,3.522-9.566-0.154-13.157l-31.792-31.282L439.106,64.74c5.867-8.101,4.628-18.721-2.944-25.255    c-7.572-6.535-18.261-6.203-25.414,0.786L229.624,217.225L48.498,40.27c-7.154-6.991-17.842-7.321-25.414-0.787    s-8.81,17.156-2.948,25.25l151.349,209.293l-58.575,57.227c-10.659-5.55-22.754-8.706-35.58-8.706    C34.69,322.547,0,357.235,0,399.875c0,18.505,6.641,36.413,18.698,50.421c14.717,17.1,36.086,26.908,58.631,26.908    c42.639,0,77.327-34.69,77.327-77.327c0-9.282-1.646-18.185-4.658-26.439l36.232-34.882c3.702-3.564,3.813-9.454,0.249-13.155    c-3.564-3.702-9.454-3.813-13.155-0.249l-32.237,31.036c-3.594-5.228-7.815-9.989-12.551-14.183l53.973-52.73l16.261,22.486    c1.544,2.136,3.923,3.516,6.543,3.799c2.616,0.282,5.238-0.561,7.201-2.319l17.729-15.869l79.007,76.066    c-3.012,8.252-4.658,17.157-4.658,26.439c0,42.639,34.69,77.327,77.327,77.327c20.18,0,39.404-7.878,53.772-21.79    c7.755,3.043,15.837,4.547,23.855,4.547c18.512,0,36.65-7.905,49.465-22.765l0.733-0.851    C513.098,432.45,512.662,426.575,508.771,423.221z M423.753,53.58c0.045-0.043,0.084-0.079,0.119-0.108    c0.089,0.056,0.185,0.139,0.254,0.218c-0.024,0.038-0.052,0.083-0.089,0.134L274.178,260.754l-31.24-30.521L423.753,53.58z     M136.047,399.875c0,32.378-26.341,58.719-58.719,58.719c-17.118,0-33.349-7.45-44.527-20.438    c-9.152-10.633-14.192-24.228-14.192-38.281c0-32.378,26.342-58.719,58.719-58.719    C109.705,341.155,136.047,367.496,136.047,399.875z M426.445,438.156c-11.179,12.989-27.408,20.438-44.527,20.438    c-32.376,0-58.718-26.341-58.718-58.719c0-32.378,26.342-58.719,58.719-58.719c32.377,0,58.719,26.341,58.719,58.719    C440.638,413.926,435.598,427.523,426.445,438.156z"/><circle cx="216" cy="260" r="9"/></g><g transform="matrix(0.07401823874526223 -0.008882188682021494 0.008882188682021494 0.07401823874526223 257.7820182401936 315.30364979842466)" id="L1_1"><circle cx="182" cy="395" r="8"/><circle cx="182" cy="274" r="8"/><path d="M470.1,32.943c-4.258-2.796-9.591-3.261-14.266-1.239l-41.939,18.133L218.431,5.201    c-5.435-1.633-11.023-2.91-16.742-3.783c-0.057-0.008-0.116-0.017-0.173-0.024C195.466,0.478,189.274,0,182.973,0    C114.934,0,59.581,55.353,59.581,123.392s55.353,123.392,123.392,123.392c15.16,0,29.687-2.754,43.116-7.778v152.05    c0,23.774-19.341,43.116-43.116,43.116c-23.775,0-43.116-19.341-43.116-43.116V265.98c0-4.747-3.848-8.595-8.595-8.595    s-8.595,3.848-8.595,8.595v125.073c0,30.334,22.517,55.498,51.711,59.683v28.6c0,8.531-6.94,15.472-15.472,15.472h-43.012    c-8.531,0-15.472-6.94-15.472-15.472V360.72c0-18.01-14.652-32.663-32.662-32.663c-18.01,0-32.662,14.652-32.662,32.663v62.46    c0,4.747,3.848,8.595,8.595,8.595s8.595-3.848,8.595-8.595v-62.46c0-8.531,6.94-15.472,15.472-15.472    c8.531,0,15.472,6.94,15.472,15.472v118.616c0,18.01,14.652,32.662,32.662,32.662h43.012c18.01,0,32.663-14.652,32.663-32.662    v-28.6c29.195-4.185,51.711-29.349,51.711-59.683V231.007c37.616-21.163,63.086-61.467,63.086-107.615    c0-35.044-14.685-66.722-38.224-89.205l137.992,31.511v104.136l-108.733,30.72c-4.568,1.29-7.226,6.041-5.934,10.608    c1.07,3.788,4.517,6.261,8.266,6.261c0.774,0,1.56-0.105,2.341-0.327l112.049-31.656l41.714,18.035    c1.927,0.833,3.963,1.243,5.993,1.243c2.895,0,5.77-0.838,8.275-2.483c4.256-2.798,6.798-7.509,6.798-12.603V45.546    C476.899,40.452,474.358,35.741,470.1,32.943z M289.173,123.392c0,58.56-47.641,106.201-106.201,106.201    S76.771,181.952,76.771,123.392c0-58.56,47.643-106.201,106.202-106.201c5.454,0,10.813,0.415,16.048,1.211l15.039,3.434    C257.498,35.16,289.173,75.644,289.173,123.392z M459.708,186.421l-36.387-15.732V64.491l36.387-15.733V186.421z"/><path d="M182.973,71.168c-28.797,0-52.224,23.428-52.224,52.224c0,28.797,23.428,52.224,52.224,52.224    c28.797,0,52.224-23.428,52.224-52.224C235.197,94.595,211.77,71.168,182.973,71.168z M182.973,158.425    c-19.318,0-35.034-15.716-35.034-35.034s15.716-35.034,35.034-35.034c19.318,0,35.034,15.716,35.034,35.034    S202.291,158.425,182.973,158.425z"/><circle cx="103" cy="98" r="8"/><circle cx="98" cy="129" r="8"/><circle cx="108" cy="158" r="8"/></g><g transform="matrix(0.1171875 0 0 0.1171875 30.00000082969666 97)" id="L1_2"><path d="M413.708,218.852c-20.117,0-36.483,16.367-36.483,36.483v201.099c0,21.354-17.374,38.728-38.728,38.728    c-21.354,0-38.728-17.374-38.728-38.728v-5.017c16.678-6.889,28.702-23.236,29.275-41.983    c0.392-12.821-4.304-24.944-13.219-34.137c-6.299-6.493-14.119-10.914-22.679-12.959V227.271V22.22v-4.052    c10.934,3.556,18.861,13.845,18.861,25.951v303.728c0,4.65,3.768,8.419,8.419,8.419c4.651,0,8.419-3.77,8.419-8.419V44.118    C328.845,19.792,309.054,0,284.727,0c-4.651,0-8.419,3.77-8.419,8.419v5.381h-11.454c-11.489,0-20.837,9.347-20.837,20.837    v180.217c0,11.489,9.346,20.837,20.837,20.837h11.454v125.724c-3.852,0.48-7.621,1.426-11.224,2.832l-62.687-116.941l10.087-5.407    c4.906-2.629,8.493-7.011,10.103-12.34c1.61-5.329,1.048-10.964-1.582-15.869L135.86,54.856    c-2.629-4.907-7.011-8.494-12.339-10.103c-5.332-1.61-10.964-1.047-15.869,1.583l-10.088,5.408l-1.062-1.98    c-1.055-1.968-2.849-3.436-4.986-4.082c-2.135-0.644-4.442-0.415-6.412,0.64c-10.386,5.566-17.981,14.845-21.388,26.126    c-3.408,11.282-2.218,23.214,3.35,33.6L239.945,428.55c7.949,16.281,24.24,26.357,42.184,26.356c0.266,0,0.535-0.024,0.803-0.028    v1.556c0,30.639,24.927,55.566,55.566,55.566s55.566-24.927,55.566-55.566V255.335c0-10.831,8.813-19.645,19.644-19.645    c10.831,0,19.645,8.813,19.645,19.645v70.137c0,4.65,3.768,8.419,8.419,8.419s8.419-3.769,8.419-8.419v-70.137    C450.191,235.219,433.825,218.852,413.708,218.852z M276.308,218.852h-11.454c-2.205,0-3.998-1.794-3.998-3.998V34.637    c0-2.205,1.794-3.998,3.998-3.998h11.454V218.852z M115.608,61.175c1.268-0.68,2.453-0.482,3.044-0.303    c0.592,0.178,1.686,0.668,2.366,1.939l85.146,158.835c0.68,1.27,0.483,2.453,0.304,3.044c-0.178,0.592-0.669,1.687-1.939,2.367    l-10.088,5.408L105.518,66.584L115.608,61.175z M284.33,437.993c-12.42,0.864-23.911-5.779-29.307-16.939    c-0.051-0.106-0.104-0.21-0.159-0.313L81.906,98.093c-3.443-6.422-4.179-13.801-2.072-20.776    c1.267-4.197,3.473-7.946,6.429-11.017l0.364,0.679c0.024,0.047,0.043,0.097,0.068,0.144l96.878,180.723    c0.019,0.036,0.044,0.066,0.064,0.101l70.477,131.472c1.106,2.062,3.02,3.572,5.284,4.166c2.263,0.595,4.671,0.219,6.648-1.035    c4.815-3.056,10.379-4.67,16.092-4.67c8.211,0,15.884,3.247,21.603,9.144c5.717,5.893,8.727,13.671,8.477,21.899    C311.751,424.158,299.502,436.927,284.33,437.993z"/><circle cx="281" cy="407" r="8"/></g><g transform="matrix(0.1171875 0 0 0.1171875 44.00000549316405 293)" id="L1_3"><circle cx="256" cy="468" r="8"/><path d="M256.001,345.902c82.598,0,149.799-77.585,149.799-172.951S338.599,0,256.001,0c-82.6,0-149.8,77.585-149.8,172.951    c0,79.5,46.704,146.633,110.096,166.773v132.572c0,21.892,17.811,39.704,39.704,39.704c21.892,0,39.704-17.811,39.704-39.704    v-98.528c0-4.767-3.863-8.631-8.631-8.631s-8.631,3.865-8.631,8.631v98.528c0,12.374-10.067,22.441-22.441,22.441    c-12.374,0-22.441-10.067-22.441-22.441V343.961C240.882,345.236,248.375,345.902,256.001,345.902z M123.463,172.951    c0-85.847,59.456-155.689,132.537-155.689s132.536,69.841,132.536,155.689S329.082,328.64,256.001,328.64    S123.463,258.798,123.463,172.951z"/><path d="M256.001,37.632c-61.757,0-112,60.704-112,135.319s50.243,135.319,112,135.319s111.999-60.704,111.999-135.319    S317.757,37.632,256.001,37.632z M256.001,291.009c-52.24,0-94.737-52.96-94.737-118.057s42.498-118.058,94.737-118.058    c52.238,0,94.736,52.96,94.736,118.057S308.239,291.009,256.001,291.009z"/></g><g transform="matrix(0.08161958307027817 0 0 0.08161958307027817 248.1054082210287 85.10538673400879)" id="L1_4"><circle cx="87" cy="43" r="8"/><circle cx="423" cy="44" r="8"/><circle cx="115" cy="38" r="8"/><circle cx="150" cy="38" r="8"/><circle cx="185" cy="38" r="8"/><circle cx="220" cy="38" r="8"/><circle cx="256" cy="38" r="8"/><circle cx="291" cy="38" r="8"/><circle cx="326" cy="38" r="8"/><circle cx="361" cy="38" r="8"/><circle cx="396" cy="38" r="8"/><circle cx="115" cy="474" r="8"/><circle cx="150" cy="474" r="8"/><circle cx="185" cy="474" r="8"/><circle cx="220" cy="474" r="8"/><circle cx="256" cy="474" r="8"/><circle cx="291" cy="474" r="8"/><circle cx="326" cy="474" r="8"/><circle cx="361" cy="474" r="8"/><circle cx="396" cy="474" r="8"/><circle cx="422" cy="470" r="8"/><circle cx="84" cy="109" r="8"/><circle cx="84" cy="146" r="8"/><circle cx="84" cy="183" r="8"/><circle cx="84" cy="220" r="8"/><circle cx="84" cy="257" r="8"/><circle cx="84" cy="294" r="8"/><circle cx="84" cy="330" r="8"/><circle cx="84" cy="367" r="8"/><circle cx="84" cy="404" r="8"/><circle cx="84" cy="441" r="8"/><circle cx="90" cy="469" r="8"/><circle cx="84" cy="72" r="8"/><circle cx="426" cy="109" r="8"/><circle cx="426" cy="146" r="8"/><circle cx="426" cy="183" r="8"/><circle cx="426" cy="220" r="8"/><circle cx="426" cy="257" r="8"/><circle cx="426" cy="294" r="8"/><circle cx="426" cy="330" r="8"/><circle cx="426" cy="367" r="8"/><circle cx="426" cy="404" r="8"/><circle cx="426" cy="441" r="8"/><circle cx="426" cy="72" r="8"/><path d="M427.328,0H84.672C62.831,0,45.062,17.769,45.062,39.612v432.778c0,21.841,17.769,39.611,39.611,39.611h342.655    c21.841,0,39.611-17.769,39.611-39.611V39.612C466.939,17.769,449.17,0,427.328,0z M427.329,494.56H84.672    c-12.224,0-22.17-9.946-22.17-22.17V39.612c0-12.226,9.946-22.171,22.17-22.171h342.655c12.225,0,22.17,9.946,22.17,22.171    v432.778h0.001C449.499,484.615,439.553,494.56,427.329,494.56z"/><path d="M396.272,155.316c4.816,0,8.72-3.904,8.72-8.72V68.566c0-4.816-3.904-8.72-8.72-8.72H115.729    c-4.816,0-8.72,3.904-8.72,8.72v374.867c0,4.817,3.904,8.72,8.72,8.72h280.543c4.816,0,8.72-3.903,8.72-8.72V192.185    c0-4.816-3.904-8.72-8.72-8.72s-8.72,3.904-8.72,8.72v242.528H124.449V77.286h263.103v69.309    C387.552,151.411,391.456,155.316,396.272,155.316z"/></g><path d="M327.525,456.45h-83.579v-24.255h98.439c4.755,0,8.61-3.855,8.61-8.61s-3.855-8.61-8.61-8.61h-98.439v-24.255h98.439    c4.755,0,8.61-3.855,8.61-8.61c0-4.755-3.855-8.61-8.61-8.61h-98.439v-24.253h98.439c4.755,0,8.61-3.855,8.61-8.61    s-3.855-8.61-8.61-8.61h-98.439v-24.255h98.439c4.755,0,8.61-3.855,8.61-8.61s-3.855-8.61-8.61-8.61h-98.439v-20.809h98.439    c4.755,0,8.61-3.855,8.61-8.61s-3.855-8.61-8.61-8.61h-98.439v-27.699h98.439c4.755,0,8.61-3.855,8.61-8.61s-3.855-8.61-8.61-8.61    h-98.439v-24.255h98.439c4.755,0,8.61-3.855,8.61-8.61s-3.855-8.61-8.61-8.61h-98.439v-24.253h98.439    c4.755,0,8.61-3.855,8.61-8.61s-3.855-8.61-8.61-8.61h-98.439v-24.256h98.439c4.755,0,8.61-3.855,8.61-8.61s-3.855-8.61-8.61-8.61    h-98.439V58.929h81.889c16.246,0,29.465-13.218,29.465-29.465C355.3,13.218,342.083,0,325.835,0H184.827    C169.318,0,156.7,12.619,156.7,28.128V80.55c0,4.755,3.855,8.61,8.61,8.61s8.61-3.855,8.61-8.61V28.128    c0-6.014,4.894-10.908,10.908-10.908h141.009c6.751,0,12.245,5.493,12.245,12.246s-5.493,12.245-12.245,12.245h-90.5    c-4.755,0-8.61,3.855-8.61,8.61v406.867c0,9.089,7.394,16.483,16.483,16.483h84.316c5.82,0,10.556,4.735,10.556,10.555    c0,5.819-4.735,10.556-10.556,10.556H184.827c-6.014,0-10.908-4.894-10.908-10.908V126.278c0-4.755-3.855-8.61-8.61-8.61    s-8.61,3.855-8.61,8.61v357.594c0,15.509,12.619,28.128,28.128,28.128h142.698c15.315,0,27.775-12.46,27.775-27.775    C355.3,468.909,342.84,456.45,327.525,456.45z" transform="matrix(0.058269880484303566 -0.04006054140419378 0.04006054140419378 0.058269880484303566 303.82738357141625 219.33838873977348)" id="L1_5"/><g transform="matrix(0.0684616451281687 -0.014412977335556047 0.014412977335556047 0.0684616451281687 178.79133855992507 267.1392298724677)" id="L1_6"><circle cx="223" cy="69" r="8"/><circle cx="255" cy="69" r="8"/><circle cx="288" cy="69" r="8"/><circle cx="239" cy="96" r="8"/><circle cx="272" cy="96" r="8"/><circle cx="223" cy="127" r="8"/><circle cx="255" cy="127" r="8"/><circle cx="288" cy="127" r="8"/><circle cx="239" cy="155" r="8"/><circle cx="272" cy="155" r="8"/><circle cx="223" cy="184" r="8"/><circle cx="255" cy="184" r="8"/><circle cx="288" cy="184" r="8"/><circle cx="223" cy="239" r="8"/><circle cx="255" cy="239" r="8"/><circle cx="288" cy="239" r="8"/><circle cx="239" cy="212" r="8"/><circle cx="272" cy="212" r="8"/><path d="M355.625,111.767c4.823,0,8.732-3.909,8.732-8.732s-3.91-8.732-8.732-8.732h-25.333V78.208h25.333    c4.823,0,8.732-3.909,8.732-8.732s-3.91-8.732-8.732-8.732h-25.347c-0.282-17.549-14.364-31.794-31.848-32.34    C294.501,12.129,279.826,0,262.362,0h-12.726c-17.463,0-32.138,12.129-36.067,28.402c-17.483,0.546-31.566,14.792-31.848,32.34    h-25.347c-4.823,0-8.732,3.909-8.732,8.732s3.91,8.732,8.732,8.732h25.333v16.094h-25.333c-4.823,0-8.732,3.909-8.732,8.732    s3.91,8.732,8.732,8.732h25.333v16.094h-25.333c-4.823,0-8.732,3.909-8.732,8.732s3.91,8.732,8.732,8.732h25.333v16.096h-25.333    c-4.823,0-8.732,3.909-8.732,8.732s3.91,8.732,8.732,8.732h25.333v16.094h-25.333c-4.823,0-8.732,3.909-8.732,8.732    s3.91,8.732,8.732,8.732h25.333v16.094h-25.333c-4.823,0-8.732,3.909-8.732,8.732s3.91,8.732,8.732,8.732h25.333v1.854    c0,18.14,14.759,32.899,32.899,32.899h9.013v198.788c0,17.894,14.559,32.453,32.453,32.453s32.453-14.559,32.453-32.453v-163    c0-4.824-3.91-8.732-8.732-8.732c-4.823,0-8.732,3.909-8.732,8.732v163.003c0,8.266-6.724,14.988-14.988,14.988    s-14.988-6.723-14.988-14.988V280.759h38.709h17.595c18.141,0,32.899-14.759,32.899-32.899v-1.854h25.333    c4.823,0,8.732-3.909,8.732-8.732s-3.91-8.732-8.732-8.732h-25.333v-16.094h25.333c4.823,0,8.732-3.909,8.732-8.732    s-3.91-8.732-8.732-8.732h-25.333v-16.094h25.333c4.823,0,8.732-3.909,8.732-8.732s-3.91-8.732-8.732-8.732h-25.333v-16.096    h25.333c4.823,0,8.732-3.909,8.732-8.732c0-4.824-3.91-8.732-8.732-8.732h-25.333v-16.096H355.625z M249.638,17.465h12.726    c7.696,0,14.374,4.449,17.594,10.911h-47.913C235.264,21.914,241.94,17.465,249.638,17.465z M312.828,247.86h-0.001    c0,8.511-6.924,15.434-15.434,15.434h-17.595h-47.441H214.61c-8.511,0-15.434-6.923-15.434-15.434V61.276    c0-8.511,6.924-15.435,15.434-15.435h6.653h69.477h6.653c8.511,0,15.434,6.924,15.434,15.435V247.86z"/></g><g transform="matrix(0.06443056578816331 0.00678216489474818 -0.00678216489474818 0.06443056578816331 165.24200937128572 46.769540945174654)" id="L1_7"><path d="M393.483,246.221c-4.909,0-8.889,3.98-8.889,8.889v227.988c0,6.135-4.991,11.124-11.125,11.124H138.531    c-6.135,0-11.125-4.99-11.125-11.124V168.55c0-21.54,17.524-39.064,39.065-39.064h179.058c21.541,0,39.065,17.524,39.065,39.064    v37.381c0,4.909,3.98,8.889,8.889,8.889c4.909,0,8.889-3.98,8.889-8.889V168.55c0-28.063-20.448-51.426-47.224-56.012V32.777    C355.147,14.703,340.444,0,322.37,0H189.629c-18.074,0-32.777,14.703-32.777,32.777v79.762    c-26.776,4.586-47.224,27.948-47.224,56.012v314.547c0,15.937,12.966,28.902,28.903,28.902h234.938    c15.937,0,28.903-12.965,28.903-28.902V255.11C402.372,250.201,398.392,246.221,393.483,246.221z M174.629,32.777    c0-8.271,6.728-15,15-15H322.37c8.271,0,15,6.728,15,15v78.931h-27.91V55.803c0-4.909-3.98-8.889-8.889-8.889    c-4.909,0-8.889,3.98-8.889,8.889v55.905h-26.793V55.803c0-4.909-3.98-8.889-8.889-8.889c-4.909,0-8.889,3.98-8.889,8.889v55.905    h-26.793V55.803c0-4.909-3.98-8.889-8.889-8.889c-4.909,0-8.889,3.98-8.889,8.889v55.905h-27.91V32.777z"/><path d="M319.864,227.848h-127.73c-17.701,0-32.102,14.4-32.102,32.101v103.81c0,17.701,14.401,32.101,32.102,32.101h127.729    c17.701,0,32.102-14.4,32.102-32.101v-103.81C351.966,242.248,337.565,227.848,319.864,227.848z M319.864,378.082h-127.73    c-7.898,0-14.324-6.425-14.324-14.323v-103.81c0-7.898,6.426-14.323,14.324-14.323h127.729c7.898,0,14.324,6.425,14.324,14.323    v103.81h0.001C334.188,371.657,327.762,378.082,319.864,378.082z"/></g></defs><g fi:class="KUsePattern"><pattern id="pattern_L1_0" width="350" height="350" patternUnits="userSpaceOnUse"><use xlink:href="#L1_0" x="-350" y="-350"/><use xlink:href="#L1_0" x="0" y="-350"/><use xlink:href="#L1_0" x="350" y="-350"/><use xlink:href="#L1_0" x="-350" y="0"/><use xlink:href="#L1_0" x="0" y="0"/><use xlink:href="#L1_0" x="350" y="0"/><use xlink:href="#L1_0" x="-350" y="350"/><use xlink:href="#L1_0" x="0" y="350"/><use xlink:href="#L1_0" x="350" y="350"/></pattern><rect x="0" y="0" width="100%" height="100%" fill="url(#pattern_L1_0)"/></g><g fi:class="KUsePattern"><pattern id="pattern_L1_1" width="350" height="350" patternUnits="userSpaceOnUse"><use xlink:href="#L1_1" x="-350" y="-350"/><use xlink:href="#L1_1" x="0" y="-350"/><use xlink:href="#L1_1" x="350" y="-350"/><use xlink:href="#L1_1" x="-350" y="0"/><use xlink:href="#L1_1" x="0" y="0"/><use xlink:href="#L1_1" x="350" y="0"/><use xlink:href="#L1_1" x="-350" y="350"/><use xlink:href="#L1_1" x="0" y="350"/><use xlink:href="#L1_1" x="350" y="350"/></pattern><rect x="0" y="0" width="100%" height="100%" fill="url(#pattern_L1_1)"/></g><g fi:class="KUsePattern"><pattern id="pattern_L1_2" width="350" height="350" patternUnits="userSpaceOnUse"><use xlink:href="#L1_2" x="-350" y="-350"/><use xlink:href="#L1_2" x="0" y="-350"/><use xlink:href="#L1_2" x="350" y="-350"/><use xlink:href="#L1_2" x="-350" y="0"/><use xlink:href="#L1_2" x="0" y="0"/><use xlink:href="#L1_2" x="350" y="0"/><use xlink:href="#L1_2" x="-350" y="350"/><use xlink:href="#L1_2" x="0" y="350"/><use xlink:href="#L1_2" x="350" y="350"/></pattern><rect x="0" y="0" width="100%" height="100%" fill="url(#pattern_L1_2)"/></g><g fi:class="KUsePattern"><pattern id="pattern_L1_3" width="350" height="350" patternUnits="userSpaceOnUse"><use xlink:href="#L1_3" x="-350" y="-350"/><use xlink:href="#L1_3" x="0" y="-350"/><use xlink:href="#L1_3" x="350" y="-350"/><use xlink:href="#L1_3" x="-350" y="0"/><use xlink:href="#L1_3" x="0" y="0"/><use xlink:href="#L1_3" x="350" y="0"/><use xlink:href="#L1_3" x="-350" y="350"/><use xlink:href="#L1_3" x="0" y="350"/><use xlink:href="#L1_3" x="350" y="350"/></pattern><rect x="0" y="0" width="100%" height="100%" fill="url(#pattern_L1_3)"/></g><g fi:class="KUsePattern"><pattern id="pattern_L1_4" width="350" height="350" patternUnits="userSpaceOnUse"><use xlink:href="#L1_4" x="-350" y="-350"/><use xlink:href="#L1_4" x="0" y="-350"/><use xlink:href="#L1_4" x="350" y="-350"/><use xlink:href="#L1_4" x="-350" y="0"/><use xlink:href="#L1_4" x="0" y="0"/><use xlink:href="#L1_4" x="350" y="0"/><use xlink:href="#L1_4" x="-350" y="350"/><use xlink:href="#L1_4" x="0" y="350"/><use xlink:href="#L1_4" x="350" y="350"/></pattern><rect x="0" y="0" width="100%" height="100%" fill="url(#pattern_L1_4)"/></g><g fi:class="KUsePattern"><pattern id="pattern_L1_5" width="350" height="350" patternUnits="userSpaceOnUse"><use xlink:href="#L1_5" x="-350" y="-350"/><use xlink:href="#L1_5" x="0" y="-350"/><use xlink:href="#L1_5" x="350" y="-350"/><use xlink:href="#L1_5" x="-350" y="0"/><use xlink:href="#L1_5" x="0" y="0"/><use xlink:href="#L1_5" x="350" y="0"/><use xlink:href="#L1_5" x="-350" y="350"/><use xlink:href="#L1_5" x="0" y="350"/><use xlink:href="#L1_5" x="350" y="350"/></pattern><rect x="0" y="0" width="100%" height="100%" fill="url(#pattern_L1_5)"/></g><g fi:class="KUsePattern"><pattern id="pattern_L1_6" width="350" height="350" patternUnits="userSpaceOnUse"><use xlink:href="#L1_6" x="-350" y="-350"/><use xlink:href="#L1_6" x="0" y="-350"/><use xlink:href="#L1_6" x="350" y="-350"/><use xlink:href="#L1_6" x="-350" y="0"/><use xlink:href="#L1_6" x="0" y="0"/><use xlink:href="#L1_6" x="350" y="0"/><use xlink:href="#L1_6" x="-350" y="350"/><use xlink:href="#L1_6" x="0" y="350"/><use xlink:href="#L1_6" x="350" y="350"/></pattern><rect x="0" y="0" width="100%" height="100%" fill="url(#pattern_L1_6)"/></g><g fi:class="KUsePattern"><pattern id="pattern_L1_7" width="350" height="350" patternUnits="userSpaceOnUse"><use xlink:href="#L1_7" x="-350" y="-350"/><use xlink:href="#L1_7" x="0" y="-350"/><use xlink:href="#L1_7" x="350" y="-350"/><use xlink:href="#L1_7" x="-350" y="0"/><use xlink:href="#L1_7" x="0" y="0"/><use xlink:href="#L1_7" x="350" y="0"/><use xlink:href="#L1_7" x="-350" y="350"/><use xlink:href="#L1_7" x="0" y="350"/><use xlink:href="#L1_7" x="350" y="350"/></pattern><rect x="0" y="0" width="100%" height="100%" fill="url(#pattern_L1_7)"/></g></svg>